<?xml version="1.0" encoding="UTF-8"?><svg id="Layer_1" xmlns="http://www.w3.org/2000/svg" viewBox="0 0 180 252"><defs><style>.cls-1,.cls-2,.cls-3{stroke-width:0px;}.cls-2{fill:#231f20;}.cls-3{fill:#fff;}</style></defs><path class="cls-2" d="m164.21048,0H15.78904C7.08285,0,0,6.62741,0,14.77379v222.45243c0,8.14615,7.08285,14.77379,15.78904,14.77379h148.42144c8.70643,0,15.78952-6.62764,15.78952-14.77379V14.77379c0-8.14637-7.08309-14.77379-15.78952-14.77379Zm13.92874,237.22621c0,7.18625-6.24865,13.03265-13.92874,13.03265H15.78904c-7.68009,0-13.92825-5.8464-13.92825-13.03265V14.77379C1.86078,7.58753,8.10894,1.74113,15.78904,1.74113h148.42144c7.68009,0,13.92874,5.8464,13.92874,13.03265v222.45243Z"/><path class="cls-3" d="m178.13922,14.77379v222.45243c0,7.18625-6.24865,13.03265-13.92874,13.03265H15.78904c-7.68009,0-13.92825-5.8464-13.92825-13.03265V14.77379C1.86078,7.58753,8.10894,1.74113,15.78904,1.74113h148.42144c7.68009,0,13.92874,5.8464,13.92874,13.03265Z"/><path class="cls-1" d="m12.64159,31.605h4.17136l1.17614,6.045h2.50909l-4.51636-23.25001h-2.50909l-4.51636,23.25001h2.50909l1.17614-6.045Zm2.08568-10.7386l1.63091,8.4136h-3.26182l1.63091-8.4136Zm152.63114,199.52859h-4.17136l-1.17614-6.045h-2.50909l4.51636,23.25001h2.50909l4.51636-23.25001h-2.50909l-1.17614,6.045Zm-2.08568,10.7386h0l-1.63091-8.4136h3.26182l-1.63091,8.4136ZM18.67584,49.48991c2.34122,3.02971,3.5787,5.19702,3.5787,6.26757,0,2.27846-1.2758,3.48273-3.68945,3.48273-1.10156,0-1.99802-.44559-2.66453-1.32405-.18086-.2409-.3359-.49724-.46301-.7655.15866,2.7921.95935,3.67942,2.11937,4.65102l.32457.27189h-6.30844l.32457-.27189c1.14128-.95577,1.92945-1.8323,2.08764-4.61617-.12319.26043-.27342.5095-.44856.74359-.65747.86995-1.54806,1.31111-2.64726,1.31111-2.41368,0-3.68945-1.20428-3.68945-3.48273,0-1.07054,1.23745-3.23786,3.5787-6.26757.06267-.08111.10711-.13867.12925-.16853l.04763-.06414c1.99931-2.68947,3.31569-4.65897,3.61169-5.40347l.16003-.40233.15997.40233c.29599.7445,1.61241,2.714,3.61169,5.40347l.04763.06414c.02214.02986.06659.08741.12925.16853Zm142.64831,153.02023c-2.34125-3.02971-3.5787-5.19702-3.5787-6.26757,0-2.27846,1.2758-3.48273,3.68945-3.48273,1.10156,0,1.99802.44559,2.66453,1.32405.18086.2409.3359.49724.46301.76545-.15866-2.79204-.95935-3.67936-2.11937-4.65097l-.32457-.27189h6.30841l-.32454.27189c-1.14131.95571-1.92945,1.8323-2.08764,4.61617.12319-.26048.27342-.5095.44856-.74359.65747-.86995,1.54806-1.31111,2.64726-1.31111,2.41365,0,3.68945,1.20428,3.68945,3.48273,0,1.07054-1.23749,3.23786-3.5787,6.26757-.06267.08111-.10711.13861-.12925.16853l-.04763.06414c-1.99931,2.68942-3.31569,4.65897-3.61169,5.40347l-.16003.40233-.15997-.40233c-.29602-.7445-1.61241-2.71405-3.61169-5.40347l-.04766-.06414c-.02211-.02991-.06659-.08741-.12922-.16853Zm-62.45039-83.86469c5.2615,6.80874,8.04251,11.67944,8.04251,14.08527,0,5.12051-2.86714,7.82684-8.29142,7.82684-2.47555,0-4.49024-1.00129-5.9881-2.97561-.40644-.54129-.7549-1.11732-1.04051-1.72019.35652,6.27466,2.15594,8.26879,4.76289,10.45229l.72945.61099h-14.17713l.72939-.61099c2.56487-2.14784,4.33611-4.11785,4.69165-10.37407-.27685.58539-.6145,1.14496-1.00811,1.67104-1.47752,1.95513-3.47901,2.94655-5.9492,2.94655-5.42435,0-8.29146-2.70633-8.29146-7.82684,0-2.40583,2.78101-7.27653,8.04254-14.08527.1408-.18232.24068-.31163.29048-.37883l.10705-.14412c4.49306-6.04409,7.45141-10.47017,8.11663-12.1433l.35961-.90417.35955.90417c.66522,1.67314,3.6236,6.09921,8.11669,12.1433l.10705.14412c.04974.06721.14962.19651.29045.37883Z"/></svg>