<?xml version="1.0" encoding="UTF-8"?><svg id="Layer_1" xmlns="http://www.w3.org/2000/svg" viewBox="0 0 180 252"><defs><style>.cls-1,.cls-2,.cls-3{stroke-width:0px;}.cls-2{fill:#231f20;}.cls-3{fill:#fff;}</style></defs><path class="cls-2" d="m164.21048,0H15.78904C7.08285,0,0,6.62741,0,14.77379v222.45243c0,8.14615,7.08285,14.77379,15.78904,14.77379h148.42144c8.70643,0,15.78952-6.62764,15.78952-14.77379V14.77379c0-8.14637-7.08309-14.77379-15.78952-14.77379Zm13.92874,237.22621c0,7.18625-6.24865,13.03265-13.92874,13.03265H15.78904c-7.68009,0-13.92825-5.8464-13.92825-13.03265V14.77379C1.86078,7.58753,8.10894,1.74113,15.78904,1.74113h148.42144c7.68009,0,13.92874,5.8464,13.92874,13.03265v222.45243Z"/><path class="cls-3" d="m178.13922,14.77379v222.45243c0,7.18625-6.24865,13.03265-13.92874,13.03265H15.78904c-7.68009,0-13.92825-5.8464-13.92825-13.03265V14.77379C1.86078,7.58753,8.10894,1.74113,15.78904,1.74113h148.42144c7.68009,0,13.92874,5.8464,13.92874,13.03265Z"/><path class="cls-1" d="m54.77742,90.74545c5.10675,6.80874,7.80602,11.67944,7.80602,14.08527,0,5.12051-2.78275,7.82684-8.04765,7.82684-2.40271,0-4.35808-1.00129-5.81189-2.97561-.39455-.54129-.73273-1.11732-1.01003-1.72019.34603,6.27466,2.09259,8.26879,4.62278,10.45229l.708.61099h-13.76013l.708-.61099c2.4894-2.14784,4.20861-4.11785,4.55369-10.37407-.26874.58539-.59646,1.14496-.97852,1.67104-1.43406,1.95513-3.37659,2.94655-5.77419,2.94655-5.26478,0-8.04753-2.70633-8.04753-7.82684,0-2.40583,2.69916-7.27653,7.8059-14.08527.13663-.18232.23366-.31163.28194-.37883l.10393-.14412c4.36094-6.04409,7.23228-10.47017,7.87784-12.1433l.34912-.90417.34888.90417c.64569,1.67314,3.51714,6.09921,7.87808,12.1433l.10393.14412c.04828.06721.14507.19651.28182.37883Zm-.28182-56.17885l-.10393-.14412c-4.36094-6.04409-7.2324-10.47017-7.87808-12.1433l-.34888-.90417-.34912.90417c-.64557,1.67314-3.51691,6.09921-7.87784,12.1433l-.10393.14412c-.04828.06721-.14531.19651-.28194.37883-5.10675,6.80874-7.8059,11.67944-7.8059,14.08527,0,5.12051,2.78275,7.82684,8.04753,7.82684,2.3976,0,4.34013-.99142,5.77419-2.94655.38206-.52608.70978-1.08564.97852-1.67104-.34508,6.25622-2.06429,8.22622-4.55369,10.37407l-.708.61099h13.76013l-.708-.61099c-2.53018-2.18349-4.27675-4.17762-4.62278-10.45229.2773.60288.61548,1.1789,1.01003,1.72019,1.4538,1.97432,3.40917,2.97561,5.81189,2.97561,5.2649,0,8.04765-2.70633,8.04765-7.82684,0-2.40583-2.69928-7.27653-7.80602-14.08527-.13675-.18232-.23354-.31163-.28182-.37883Zm.04019,104.77585c-2.39748,0-4.34013.99142-5.77431,2.94661-.38194.52602-.70966,1.08564-.9784,1.67104.34508-6.25627,2.06429-8.22622,4.55381-10.37407l.70776-.61099h-13.76013l.708.61099c2.5303,2.18349,4.27675,4.17757,4.62278,10.45223-.27718-.60282-.61536-1.17885-1.00979-1.72014-1.45392-1.97432-3.40929-2.97567-5.81201-2.97567-5.26478,0-8.04753,2.70639-8.04753,7.82684,0,2.40583,2.69916,7.27658,7.8059,14.08533.13663.18232.23366.31157.28194.37883l.10393.14412c4.36094,6.04404,7.23228,10.47017,7.87784,12.1433l.349.90417.349-.90417c.64569-1.67314,3.51703-6.09927,7.87808-12.1433l.10369-.14412c.04852-.06726.14531-.19651.28206-.37883,5.10675-6.80874,7.80602-11.6795,7.80602-14.08533,0-5.12045-2.78275-7.82684-8.04765-7.82684Zm0,55.80001c-2.39748,0-4.34013.99142-5.77431,2.94661-.38194.52602-.70966,1.08564-.9784,1.67104.34508-6.25627,2.06429-8.22622,4.55381-10.37407l.70776-.61099h-13.76013l.708.61099c2.5303,2.18349,4.27675,4.17757,4.62278,10.45223-.27718-.60282-.61536-1.17885-1.00979-1.72014-1.45392-1.97432-3.40929-2.97567-5.81201-2.97567-5.26478,0-8.04753,2.70639-8.04753,7.82684,0,2.40583,2.69916,7.27658,7.8059,14.08533.13663.18232.23366.31151.28194.37883l.10393.14406c4.36094,6.04409,7.23228,10.47022,7.87784,12.14336l.349.90412.349-.90412c.64569-1.67314,3.51703-6.09927,7.87808-12.14336l.10369-.14406c.04852-.06732.14531-.19651.28206-.37883,5.10675-6.80874,7.80602-11.6795,7.80602-14.08533,0-5.12045-2.78275-7.82684-8.04765-7.82684ZM9.63529,37.65001h2.43529V14.4h-2.43529l-2.43529,3.255v3.255l2.43529-3.255v19.99501Zm11.01281,11.67138l-.04626-.06414c-1.94051-2.68947-3.21808-4.65897-3.50537-5.40347l-.1553-.40233-.1553.40233c-.28729.7445-1.56499,2.714-3.50549,5.40347l-.04626.06414c-.02152.02986-.06457.08741-.12545.16853-2.27239,3.02971-3.47339,5.19702-3.47339,6.26757,0,2.27846,1.23822,3.48273,3.58088,3.48273,1.06687,0,1.93123-.44116,2.56943-1.31111.16992-.23409.31583-.48316.43533-.74359-.15351,2.78387-.91859,3.6604-2.02624,4.61617l-.31499.27189h6.12284l-.31499-.27189c-1.12585-.97161-1.90305-1.85892-2.05704-4.65102.12331.26826.27385.5246.44936.7655.64688.87846,1.51706,1.32405,2.58619,1.32405,2.34266,0,3.581-1.20428,3.581-3.48273,0-1.07054-1.20112-3.23786-3.4735-6.26757-.06076-.08111-.10393-.13867-.12545-.16853Zm3.59896-30.27138v13.95c0,2.57606-2.17238,4.65-4.87059,4.65s-4.87059-2.07394-4.87059-4.65v-13.95c0-2.57606,2.17226-4.65,4.87059-4.65s4.87059,2.07394,4.87059,4.65Zm-2.43529,0c0-1.28806-1.08613-2.325-2.43529-2.325s-2.43529,1.03694-2.43529,2.325v13.95c0,1.28806,1.08613,2.325,2.43529,2.325s2.43529-1.03694,2.43529-2.325v-13.95Zm148.55294,215.295v-19.99501h-2.43529v23.25001h2.43529l2.43529-3.255v-3.255l-2.43529,3.255Zm-71.99362-67.10255c-2.39748,0-4.34025.99142-5.77431,2.94661-.38194.52602-.70966,1.08564-.9784,1.67104.34508-6.25627,2.06429-8.22622,4.55381-10.37407l.70776-.61099h-13.76013l.708.61099c2.53042,2.18349,4.27675,4.17757,4.62278,10.45223-.2773-.60282-.61548-1.17885-1.00979-1.72014-1.4538-1.97432-3.40941-2.97567-5.81212-2.97567-5.26466,0-8.04741,2.70639-8.04741,7.82684,0,2.40583,2.69904,7.27658,7.80602,14.08533.13651.18232.23354.31157.28182.37883l.10393.14412c4.36094,6.04404,7.23216,10.47017,7.87784,12.1433l.34888.90417.34912-.90417c.64569-1.67314,3.51714-6.09927,7.87808-12.1433l.10369-.14412c.04852-.06726.14531-.19651.28206-.37883,5.10675-6.80874,7.80602-11.6795,7.80602-14.08533,0-5.12045-2.78275-7.82684-8.04765-7.82684Zm43.7951-76.87584l-.10393-.14412c-4.36094-6.04409-7.2324-10.47017-7.87808-12.1433l-.34888-.90417-.34912.90417c-.64569,1.67314-3.51691,6.09921-7.87784,12.1433l-.10393.14412c-.04828.06721-.14531.19651-.28182.37883-5.10698,6.80874-7.80602,11.67944-7.80602,14.08527,0,5.12051,2.78275,7.82684,8.04765,7.82684,2.39748,0,4.34001-.99142,5.77407-2.94655.38218-.52608.7099-1.08564.9784-1.67104-.34508,6.25622-2.06405,8.22622-4.55357,10.37407l-.708.61099h13.76013l-.708-.61099c-2.53018-2.18349-4.27675-4.17762-4.62278-10.45229.2773.60288.61548,1.1789,1.01003,1.72019,1.4538,1.97432,3.40917,2.97561,5.81189,2.97561,5.2649,0,8.04765-2.70633,8.04765-7.82684,0-2.40583-2.69928-7.27653-7.80602-14.08527-.13675-.18232-.23354-.31163-.28182-.37883Zm0-55.80001l-.10393-.14412c-4.36094-6.04409-7.2324-10.47017-7.87808-12.1433l-.34888-.90417-.34912.90417c-.64569,1.67314-3.51691,6.09921-7.87784,12.1433l-.10393.14412c-.04828.06721-.14531.19651-.28182.37883-5.10698,6.80874-7.80602,11.67944-7.80602,14.08527,0,5.12051,2.78275,7.82684,8.04765,7.82684,2.39748,0,4.34001-.99142,5.77407-2.94655.38218-.52608.7099-1.08564.9784-1.67104-.34508,6.25622-2.06405,8.22622-4.55357,10.37407l-.708.61099h13.76013l-.708-.61099c-2.53018-2.18349-4.27675-4.17762-4.62278-10.45229.2773.60288.61548,1.1789,1.01003,1.72019,1.4538,1.97432,3.40917,2.97561,5.81189,2.97561,5.2649,0,8.04765-2.70633,8.04765-7.82684,0-2.40583-2.69928-7.27653-7.80602-14.08527-.13675-.18232-.23354-.31163-.28182-.37883Zm24.61764,158.19324c-1.06687,0-1.93135.44116-2.56943,1.31111-.17004.23409-.31583.48311-.43545.74359.15363-2.78387.91847-3.66046,2.02624-4.61617l.31511-.27189h-6.12296l.31488.27189c1.12609.97161,1.90305,1.85892,2.05716,4.65097-.12343-.2682-.27397-.52454-.44948-.76545-.64688-.87846-1.51683-1.32405-2.58607-1.32405-2.34254,0-3.58088,1.20428-3.58088,3.48273,0,1.07054,1.201,3.23786,3.47339,6.26757.06088.08111.10393.13861.12533.16853l.04638.06414c1.94039,2.68942,3.2182,4.65897,3.50549,5.40347l.1553.40233.1553-.40233c.28729-.7445,1.56487-2.71405,3.50549-5.40347l.04614-.06414c.0214-.02991.06469-.08741.12557-.16853,2.27215-3.02971,3.47339-5.19702,3.47339-6.26757,0-2.27846-1.23834-3.48273-3.58088-3.48273Zm-1.28971,26.24015v13.95c0,2.57612-2.17226,4.65-4.87059,4.65s-4.87059-2.07388-4.87059-4.65v-13.95c0-2.57601,2.17226-4.65,4.87059-4.65s4.87059,2.074,4.87059,4.65Zm-2.43529,0c0-1.28806-1.08613-2.325-2.43529-2.325s-2.43529,1.03694-2.43529,2.325v13.95c0,1.28806,1.08613,2.325,2.43529,2.325s2.43529-1.03694,2.43529-2.325v-13.95ZM98.33089,62.46661l-.10393-.14412c-4.36094-6.04409-7.2324-10.47017-7.87808-12.1433l-.34888-.90417-.34912.90417c-.64569,1.67314-3.51691,6.09921-7.87784,12.1433l-.10393.14412c-.04828.06721-.14531.19651-.28182.37883-5.10698,6.80874-7.80602,11.67944-7.80602,14.08527,0,5.12051,2.78275,7.82684,8.04765,7.82684,2.39748,0,4.34001-.99142,5.77407-2.94655.38218-.52608.7099-1.08564.9784-1.67104-.34508,6.25622-2.06405,8.22622-4.55357,10.37407l-.708.61099h13.76013l-.708-.61099c-2.53018-2.18349-4.27675-4.17762-4.62278-10.45229.2773.60288.61548,1.1789,1.01003,1.72019,1.4538,1.97432,3.40917,2.97561,5.81189,2.97561,5.2649,0,8.04765-2.70633,8.04765-7.82684,0-2.40583-2.69928-7.27653-7.80602-14.08527-.13675-.18232-.23354-.31163-.28182-.37883Zm43.87549,132.67585c-2.39748,0-4.34025.99142-5.77431,2.94661-.38194.52602-.70966,1.08564-.9784,1.67104.34508-6.25627,2.06429-8.22622,4.55381-10.37407l.70776-.61099h-13.76013l.708.61099c2.53042,2.18349,4.27675,4.17757,4.62278,10.45223-.2773-.60282-.61548-1.17885-1.00979-1.72014-1.4538-1.97432-3.40941-2.97567-5.81212-2.97567-5.26466,0-8.04741,2.70639-8.04741,7.82684,0,2.40583,2.69904,7.27658,7.80602,14.08533.13651.18232.23354.31151.28182.37883l.10393.14406c4.36094,6.04409,7.23216,10.47022,7.87784,12.14336l.34888.90412.34912-.90412c.64569-1.67314,3.51714-6.09927,7.87808-12.14336l.10369-.14406c.04852-.06732.14531-.19651.28206-.37883,5.10675-6.80874,7.80602-11.6795,7.80602-14.08533,0-5.12045-2.78275-7.82684-8.04765-7.82684Zm0-55.80001c-2.39748,0-4.34025.99142-5.77431,2.94661-.38194.52602-.70966,1.08564-.9784,1.67104.34508-6.25627,2.06429-8.22622,4.55381-10.37407l.70776-.61099h-13.76013l.708.61099c2.53042,2.18349,4.27675,4.17757,4.62278,10.45223-.2773-.60282-.61548-1.17885-1.00979-1.72014-1.4538-1.97432-3.40941-2.97567-5.81212-2.97567-5.26466,0-8.04741,2.70639-8.04741,7.82684,0,2.40583,2.69904,7.27658,7.80602,14.08533.13651.18232.23354.31157.28182.37883l.10393.14412c4.36094,6.04404,7.23216,10.47017,7.87784,12.1433l.34888.90417.34912-.90417c.64569-1.67314,3.51714-6.09927,7.87808-12.1433l.10369-.14412c.04852-.06726.14531-.19651.28206-.37883,5.10675-6.80874,7.80602-11.6795,7.80602-14.08533,0-5.12045-2.78275-7.82684-8.04765-7.82684Z"/></svg>