<?xml version="1.0" encoding="UTF-8"?><svg id="Layer_1" xmlns="http://www.w3.org/2000/svg" viewBox="0 0 180 252"><defs><style>.cls-1,.cls-2,.cls-3{stroke-width:0px;}.cls-2{fill:#231f20;}.cls-3{fill:#fff;}</style></defs><path class="cls-2" d="m164.21048,0H15.78904C7.08285,0,0,6.62741,0,14.77379v222.45243c0,8.14615,7.08285,14.77379,15.78904,14.77379h148.42144c8.70643,0,15.78952-6.62764,15.78952-14.77379V14.77379c0-8.14637-7.08309-14.77379-15.78952-14.77379Zm13.92874,237.22621c0,7.18625-6.24865,13.03265-13.92874,13.03265H15.78904c-7.68009,0-13.92825-5.8464-13.92825-13.03265V14.77379C1.86078,7.58753,8.10894,1.74113,15.78904,1.74113h148.42144c7.68009,0,13.92874,5.8464,13.92874,13.03265v222.45243Z"/><path class="cls-3" d="m178.13922,14.77379v222.45243c0,7.18625-6.24865,13.03265-13.92874,13.03265H15.78904c-7.68009,0-13.92825-5.8464-13.92825-13.03265V14.77379C1.86078,7.58753,8.10894,1.74113,15.78904,1.74113h148.42144c7.68009,0,13.92874,5.8464,13.92874,13.03265Z"/><path class="cls-1" d="m9.70909,32.99999v-2.325h2.50909v2.325c0,1.28806,1.11904,2.325,2.50909,2.325s2.50909-1.03694,2.50909-2.325v-4.65c0-1.28806-1.11904-2.325-2.50909-2.325h-2.50909v-2.325h2.50909c1.39005,0,2.50909-1.03694,2.50909-2.325v-2.325c0-1.28806-1.11904-2.325-2.50909-2.325s-2.50909,1.03694-2.50909,2.325v2.325h-2.50909v-2.325c0-2.57612,2.23809-4.65,5.01818-4.65s5.01818,2.07388,5.01818,4.65v2.325c0,1.3967-.66384,2.63651-1.70932,3.4875,1.04547.85099,1.70932,2.0908,1.70932,3.4875v4.65c0,2.57612-2.23815,4.65-5.01818,4.65s-5.01818-2.07388-5.01818-4.65Zm155.56364,181.34991c-2.78009,0-5.01818,2.07399-5.01818,4.65v4.65c0,1.3967.66384,2.63663,1.70932,3.48761-1.04547.85087-1.70932,2.0908-1.70932,3.4875v2.325c0,2.576,2.23809,4.65,5.01818,4.65v-.00011c2.78003,0,5.01818-2.07388,5.01818-4.65v-2.325h-2.50909v2.325c0,1.28806-1.11911,2.325-2.50909,2.325s-2.50909-1.03694-2.50909-2.325v-2.325c0-1.28806,1.11904-2.325,2.50909-2.325h2.50909v-2.325h-2.50909c-1.39005,0-2.50909-1.03694-2.50909-2.325v-4.65c0-1.28806,1.11904-2.325,2.50909-2.325s2.50909,1.03694,2.50909,2.325v2.325h2.50909v-2.325c0-2.576-2.23815-4.65-5.01818-4.65ZM18.54659,49.32141l-.04766-.06414c-1.99925-2.68947-3.31566-4.65897-3.61166-5.40347l-.15994-.40233-.16006.40233c-.29599.7445-1.61235,2.71399-3.61166,5.40347l-.04766.06414c-.02218.02986-.06659.08741-.12925.16853-2.34125,3.02971-3.5787,5.19702-3.5787,6.26756,0,2.27845,1.2758,3.48273,3.68945,3.48273,1.0992,0,1.98975-.44116,2.64729-1.3111.17507-.23409.32534-.48316.44852-.74359-.15817,2.78387-.94636,3.6604-2.08764,4.61617l-.32454.27189h6.30838l-.32454-.27189c-1.16003-.97161-1.96072-1.85892-2.11937-4.65102.12711.26826.28215.5246.46298.7655.66654.87846,1.56304,1.32405,2.66456,1.32405,2.41365,0,3.68945-1.20428,3.68945-3.48273,0-1.07054-1.23745-3.23786-3.5787-6.26756-.06267-.08111-.10708-.13867-.12925-.16853Zm142.90682,153.35717l.04766.06414c1.99925,2.68942,3.3156,4.65897,3.61166,5.40347l.15994.40233.16006-.40233c.29599-.7445,1.61235-2.71405,3.61166-5.40347l.04766-.06414c.02218-.02991.06659-.08741.12925-.16853,2.34125-3.02971,3.5787-5.19702,3.5787-6.26756,0-2.27845-1.2758-3.48273-3.68945-3.48273-1.0992,0-1.98975.44116-2.64729,1.3111-.17507.23409-.32534.48311-.44852.74359.15817-2.78387.9463-3.66045,2.08764-4.61617l.32454-.27189h-6.30838l.32454.27189c1.16003.97161,1.96072,1.85892,2.11937,4.65096-.12711-.2682-.28215-.52454-.46298-.76544-.66654-.87846-1.56304-1.32405-2.66456-1.32405-2.41365,0-3.68945,1.20428-3.68945,3.48273,0,1.07054,1.23745,3.23786,3.5787,6.26756.0626.08111.10708.13861.12925.16853ZM98.58328,34.56664l-.10702-.14412c-4.49309-6.04409-7.4515-10.47016-8.11669-12.14329l-.35952-.90417-.35964.90417c-.66519,1.67314-3.62354,6.09921-8.11663,12.14329l-.10708.14412c-.04974.06721-.14965.19651-.29048.37883-5.2615,6.80874-8.04251,11.67943-8.04251,14.08526,0,5.1205,2.86714,7.82683,8.29146,7.82683,2.47019,0,4.47165-.99142,5.94917-2.94655.39364-.52608.73129-1.08564,1.00817-1.67104-.35554,6.25621-2.12685,8.22622-4.69168,10.37406l-.72939.61099h14.17716l-.72945-.61099c-2.60698-2.18349-4.40641-4.17762-4.76292-10.45228.28564.60288.63407,1.1789,1.04051,1.72019,1.49786,1.97432,3.51254,2.97561,5.98807,2.97561,5.42432,0,8.29146-2.70633,8.29146-7.82683,0-2.40583-2.78101-7.27652-8.04251-14.08526-.14083-.18232-.24074-.31163-.29048-.37883Zm0,83.69996l-.10702-.14412c-4.49309-6.04409-7.4515-10.47016-8.11669-12.14329l-.35952-.90417-.35964.90417c-.66519,1.67314-3.62354,6.09921-8.11663,12.14329l-.10708.14412c-.04974.06721-.14965.19651-.29048.37883-5.2615,6.80874-8.04251,11.67943-8.04251,14.08526,0,5.1205,2.86714,7.82683,8.29146,7.82683,2.47019,0,4.47165-.99142,5.94917-2.94655.39364-.52608.73129-1.08564,1.00817-1.67104-.35554,6.25621-2.12685,8.22622-4.69168,10.37406l-.72939.61099h14.17716l-.72945-.61099c-2.60698-2.18349-4.40641-4.17762-4.76292-10.45228.28564.60288.63407,1.1789,1.04051,1.72019,1.49786,1.97432,3.51254,2.97561,5.98807,2.97561,5.42432,0,8.29146-2.70633,8.29146-7.82683,0-2.40583-2.78101-7.27652-8.04251-14.08526-.14083-.18232-.24074-.31163-.29048-.37883Zm.04153,76.87578c-2.47025,0-4.47165.99142-5.94923,2.94661-.39358.52602-.73123,1.08564-1.00811,1.67104.35554-6.25627,2.12679-8.22622,4.69168-10.37406l.72939-.61099h-14.17716l.72945.61099c2.60698,2.18349,4.40641,4.17756,4.76292,10.45222-.28564-.60282-.63407-1.17885-1.04051-1.72014-1.49792-1.97432-3.51254-2.97567-5.98807-2.97567-5.42432,0-8.29146,2.70639-8.29146,7.82683,0,2.40583,2.78101,7.27658,8.04251,14.08532.14077.18232.24074.31151.29048.37883l.10702.14406c4.49309,6.04409,7.4515,10.47021,8.11669,12.14335l.35952.90412.35958-.90412c.66525-1.67314,3.6236-6.09926,8.11669-12.14335l.10708-.14406c.04974-.06732.14959-.19651.29048-.37883,5.2615-6.80874,8.04251-11.67949,8.04251-14.08532,0-5.12045-2.86714-7.82683-8.29146-7.82683Z"/></svg>