<?xml version="1.0" encoding="UTF-8"?><svg id="Layer_1" xmlns="http://www.w3.org/2000/svg" viewBox="0 0 180 252"><defs><style>.cls-1,.cls-2,.cls-3{stroke-width:0px;}.cls-2{fill:#231f20;}.cls-3{fill:#fff;}</style></defs><path class="cls-2" d="m164.21048,0H15.78904C7.08285,0,0,6.62741,0,14.77379v222.45243c0,8.14615,7.08285,14.77379,15.78904,14.77379h148.42144c8.70643,0,15.78952-6.62764,15.78952-14.77379V14.77379c0-8.14637-7.08309-14.77379-15.78952-14.77379Zm13.92874,237.22621c0,7.18625-6.24865,13.03265-13.92874,13.03265H15.78904c-7.68009,0-13.92825-5.8464-13.92825-13.03265V14.77379C1.86078,7.58753,8.10894,1.74113,15.78904,1.74113h148.42144c7.68009,0,13.92874,5.8464,13.92874,13.03265v222.45243Z"/><path class="cls-3" d="m178.13922,14.77379v222.45243c0,7.18625-6.24865,13.03265-13.92874,13.03265H15.78904c-7.68009,0-13.92825-5.8464-13.92825-13.03265V14.77379C1.86078,7.58753,8.10894,1.74113,15.78904,1.74113h148.42144c7.68009,0,13.92874,5.8464,13.92874,13.03265Z"/><path class="cls-1" d="m15.73091,33h-6.02182v-2.325l5.01818-16.275h2.60943l-5.01812,16.275h3.41233v-6.975h2.50909v6.975h1.50545v2.325h-1.50545v4.65h-2.50909v-4.65Zm148.53818,181.35h-2.50909v4.65h-1.50545v2.325h1.50545v6.975h2.50909v-6.975h3.41233l-5.01818,16.275h2.60949l5.01818-16.275v-2.325h-6.02182v-4.65ZM18.54659,49.32143l-.04766-.06414c-1.99925-2.68947-3.31566-4.65897-3.61166-5.40347l-.15994-.40233-.16006.40233c-.29599.7445-1.61235,2.71399-3.61166,5.40347l-.04766.06414c-.02218.02986-.06659.08741-.12925.16853-2.34125,3.02971-3.5787,5.19702-3.5787,6.26757,0,2.27845,1.2758,3.48273,3.68945,3.48273,1.0992,0,1.98975-.44116,2.64729-1.3111.17507-.23409.32534-.48316.44852-.74359-.15817,2.78387-.94636,3.6604-2.08764,4.61617l-.32454.27189h6.30838l-.32454-.27189c-1.16003-.97161-1.96072-1.85892-2.11937-4.65102.12711.26826.28215.5246.46298.7655.66654.87846,1.56304,1.32405,2.66456,1.32405,2.41365,0,3.68945-1.20428,3.68945-3.48273,0-1.07054-1.23745-3.23786-3.5787-6.26757-.06267-.08111-.10708-.13867-.12925-.16853Zm142.90682,153.35725l.04766.06414c1.99925,2.68942,3.3156,4.65897,3.61166,5.40347l.15994.40233.16006-.40233c.29599-.7445,1.61235-2.71405,3.61166-5.40347l.04766-.06414c.02218-.02991.06659-.08741.12925-.16853,2.34125-3.02971,3.5787-5.19702,3.5787-6.26757,0-2.27845-1.2758-3.48273-3.68945-3.48273-1.0992,0-1.98975.44116-2.64729,1.3111-.17507.23409-.32534.48311-.44852.74359.15817-2.78387.9463-3.66046,2.08764-4.61617l.32454-.27189h-6.30838l.32454.27189c1.16003.97161,1.96072,1.85892,2.11937,4.65096-.12711-.2682-.28215-.52454-.46298-.76544-.66654-.87846-1.56304-1.32405-2.66456-1.32405-2.41365,0-3.68945,1.20428-3.68945,3.48273,0,1.07054,1.23745,3.23786,3.5787,6.26757.0626.08111.10708.13861.12925.16853ZM53.41671,34.56665l-.10708-.14412c-4.49309-6.04409-7.45144-10.47016-8.11669-12.1433l-.35946-.90417-.35964.90417c-.66519,1.67314-3.6236,6.09921-8.11663,12.1433l-.10708.14412c-.0498.06721-.14965.19651-.29048.37883-5.2615,6.80874-8.04257,11.67944-8.04257,14.08527,0,5.12051,2.86714,7.82684,8.29152,7.82684,2.47019,0,4.47165-.99142,5.94917-2.94655.39364-.52608.73129-1.08564,1.00811-1.67104-.35554,6.25621-2.12679,8.22622-4.69162,10.37406l-.72945.61099h14.17716l-.72945-.61099c-2.60692-2.18349-4.40641-4.17762-4.76292-10.45228.2857.60288.63413,1.1789,1.04051,1.72019,1.49792,1.97432,3.5126,2.97561,5.98813,2.97561,5.42432,0,8.29139-2.70633,8.29139-7.82684,0-2.40583-2.78095-7.27652-8.04244-14.08527-.14083-.18232-.24074-.31163-.29048-.37883Zm90.32727,0l-.10708-.14412c-4.49309-6.04409-7.45144-10.47016-8.11669-12.1433l-.35946-.90417-.35964.90417c-.66519,1.67314-3.6236,6.09921-8.11663,12.1433l-.10708.14412c-.0498.06721-.14965.19651-.29048.37883-5.2615,6.80874-8.04257,11.67944-8.04257,14.08527,0,5.12051,2.86714,7.82684,8.29152,7.82684,2.47019,0,4.47165-.99142,5.94917-2.94655.39364-.52608.73129-1.08564,1.00811-1.67104-.35554,6.25621-2.12679,8.22622-4.69162,10.37406l-.72945.61099h14.17716l-.72945-.61099c-2.60692-2.18349-4.40641-4.17762-4.76292-10.45228.2857.60288.63413,1.1789,1.04051,1.72019,1.49792,1.97432,3.5126,2.97561,5.98813,2.97561,5.42432,0,8.29139-2.70633,8.29139-7.82684,0-2.40583-2.78095-7.27652-8.04244-14.08527-.14083-.18232-.24074-.31163-.29048-.37883Zm.04153,160.57582c-2.47025,0-4.47171.99142-5.94923,2.94661-.39358.52602-.73123,1.08564-1.00811,1.67104.35554-6.25627,2.12679-8.22622,4.69168-10.37406l.72933-.61099h-14.1771l.72945.61099c2.60698,2.18349,4.40635,4.17756,4.76286,10.45223-.28558-.60282-.63401-1.17885-1.04051-1.72014-1.49786-1.97432-3.51248-2.97567-5.98807-2.97567-5.42426,0-8.29146,2.70639-8.29146,7.82684,0,2.40583,2.78107,7.27658,8.04257,14.08532.14077.18232.24068.31151.29042.37883l.10702.14406c4.49309,6.04409,7.4515,10.47022,8.11669,12.14336l.35958.90412.35958-.90412c.66525-1.67314,3.6236-6.09927,8.11669-12.14336l.10702-.14406c.0498-.06732.14965-.19651.29048-.37883,5.26156-6.80874,8.04251-11.67949,8.04251-14.08532,0-5.12045-2.86708-7.82684-8.29139-7.82684Zm-90.32727,0c-2.47025,0-4.47171.99142-5.94923,2.94661-.39358.52602-.73123,1.08564-1.00811,1.67104.35554-6.25627,2.12679-8.22622,4.69168-10.37406l.72933-.61099h-14.1771l.72945.61099c2.60698,2.18349,4.40635,4.17756,4.76286,10.45223-.28558-.60282-.63401-1.17885-1.04051-1.72014-1.49786-1.97432-3.51248-2.97567-5.98807-2.97567-5.42426,0-8.29146,2.70639-8.29146,7.82684,0,2.40583,2.78107,7.27658,8.04257,14.08532.14077.18232.24068.31151.29042.37883l.10702.14406c4.49309,6.04409,7.4515,10.47022,8.11669,12.14336l.35958.90412.35958-.90412c.66525-1.67314,3.6236-6.09927,8.11669-12.14336l.10702-.14406c.0498-.06732.14965-.19651.29048-.37883,5.26156-6.80874,8.04251-11.67949,8.04251-14.08532,0-5.12045-2.86708-7.82684-8.29139-7.82684Z"/></svg>