<?xml version="1.0" encoding="UTF-8"?><svg id="Layer_1" xmlns="http://www.w3.org/2000/svg" viewBox="0 0 180 252"><defs><style>.cls-1,.cls-2,.cls-3{stroke-width:0px;}.cls-2{fill:#231f20;}.cls-3{fill:#fff;}</style></defs><path class="cls-2" d="m164.21048,0H15.78904C7.08285,0,0,6.62741,0,14.77379v222.45243c0,8.14615,7.08285,14.77379,15.78904,14.77379h148.42144c8.70643,0,15.78952-6.62764,15.78952-14.77379V14.77379c0-8.14637-7.08309-14.77379-15.78952-14.77379Zm13.92874,237.22621c0,7.18625-6.24865,13.03265-13.92874,13.03265H15.78904c-7.68009,0-13.92825-5.8464-13.92825-13.03265V14.77379C1.86078,7.58753,8.10894,1.74113,15.78904,1.74113h148.42144c7.68009,0,13.92874,5.8464,13.92874,13.03265v222.45243Z"/><path class="cls-3" d="m178.13922,14.77379v222.45243c0,7.18625-6.24865,13.03265-13.92874,13.03265H15.78904c-7.68009,0-13.92825-5.8464-13.92825-13.03265V14.77379C1.86078,7.58753,8.10894,1.74113,15.78904,1.74113h148.42144c7.68009,0,13.92874,5.8464,13.92874,13.03265Z"/><path class="cls-1" d="m9.70909,33v-2.325h2.50909v2.325c0,1.28806,1.11904,2.325,2.50909,2.325s2.50909-1.03694,2.50909-2.325v-6.975c0-1.28806-1.11904-2.325-2.50909-2.325h-5.01818v-9.3h10.03636v2.325h-7.52727v4.65h2.50909c2.77997,0,5.01818,2.07388,5.01818,4.65v6.975c0,2.57612-2.23821,4.65-5.01818,4.65s-5.01818-2.07388-5.01818-4.65Zm155.56364,181.35c-2.78009,0-5.01818,2.07388-5.01818,4.65v6.975c0,2.57612,2.23809,4.65,5.01818,4.65h2.50909v4.65h-7.52727v2.325h10.03636v-9.3h-5.01818c-1.39005,0-2.50909-1.03694-2.50909-2.325v-6.975c0-1.28806,1.11904-2.325,2.50909-2.325,1.38992,0,2.50909,1.03694,2.50909,2.325v2.325h2.50909v-2.325c0-2.57612-2.23821-4.65-5.01818-4.65ZM18.54653,49.32143l-.04766-.06414c-1.99931-2.68947-3.3156-4.65897-3.6116-5.40347l-.16-.40233-.16.40233c-.29599.7445-1.61241,2.71399-3.61172,5.40347l-.04766.06414c-.02218.02986-.06653.08741-.12925.16853-2.34125,3.02971-3.57864,5.19702-3.57864,6.26757,0,2.27845,1.27574,3.48273,3.68939,3.48273,1.0992,0,1.98975-.44116,2.64729-1.3111.17507-.23409.3254-.48316.44852-.74359-.15817,2.78387-.94642,3.6604-2.08764,4.61617l-.32454.27189h6.30838l-.32454-.27189c-1.15996-.97161-1.96072-1.85892-2.11937-4.65102.12705.26826.28215.5246.46298.7655.66648.87846,1.56304,1.32405,2.66456,1.32405,2.41365,0,3.68952-1.20428,3.68952-3.48273,0-1.07054-1.23752-3.23786-3.57876-6.26757-.0626-.08111-.10708-.13867-.12925-.16853Zm142.90682,153.35725l.04766.06414c1.99919,2.68942,3.3156,4.65897,3.61172,5.40347l.15988.40233.16013-.40233c.29599-.7445,1.61229-2.71405,3.6116-5.40347l.04766-.06414c.02218-.02991.06665-.08741.12925-.16853,2.34125-3.02971,3.57876-5.19702,3.57876-6.26757,0-2.27845-1.27586-3.48273-3.68952-3.48273-1.0992,0-1.98975.44116-2.64729,1.3111-.17507.23409-.32528.48311-.44852.74359.15817-2.78387.9463-3.66046,2.08764-4.61617l.32454-.27189h-6.30838l.32454.27189c1.16009.97161,1.96072,1.85892,2.11937,4.65096-.12717-.2682-.28215-.52454-.46298-.76544-.6666-.87846-1.56304-1.32405-2.66456-1.32405-2.41365,0-3.68939,1.20428-3.68939,3.48273,0,1.07054,1.23739,3.23786,3.57864,6.26757.0626.08111.10708.13861.12925.16853ZM53.41665,34.56665l-.10708-.14412c-4.49309-6.04409-7.45144-10.47016-8.11669-12.1433l-.35946-.90417-.3597.90417c-.66513,1.67314-3.62348,6.09921-8.11657,12.1433l-.10708.14412c-.04974.06721-.14971.19651-.29048.37883-5.2615,6.80874-8.04257,11.67944-8.04257,14.08527,0,5.12051,2.8672,7.82684,8.29152,7.82684,2.47025,0,4.47165-.99142,5.94917-2.94655.39364-.52608.73129-1.08564,1.00805-1.67104-.35554,6.25621-2.12672,8.22622-4.69156,10.37406l-.72945.61099h14.1771l-.72945-.61099c-2.60686-2.18349-4.40635-4.17762-4.76286-10.45228.2857.60288.63413,1.1789,1.04051,1.72019,1.49798,1.97432,3.5126,2.97561,5.98813,2.97561,5.42432,0,8.29139-2.70633,8.29139-7.82684,0-2.40583-2.78095-7.27652-8.04244-14.08527-.14089-.18232-.24074-.31163-.29048-.37883Zm90.32727,0l-.10708-.14412c-4.49309-6.04409-7.45144-10.47016-8.11669-12.1433l-.35946-.90417-.3597.90417c-.66513,1.67314-3.62348,6.09921-8.11657,12.1433l-.10708.14412c-.04974.06721-.14971.19651-.29048.37883-5.2615,6.80874-8.04257,11.67944-8.04257,14.08527,0,5.12051,2.8672,7.82684,8.29152,7.82684,2.47025,0,4.47165-.99142,5.94917-2.94655.39364-.52608.73129-1.08564,1.00805-1.67104-.35554,6.25621-2.12672,8.22622-4.69156,10.37406l-.72945.61099h14.1771l-.72945-.61099c-2.60686-2.18349-4.40635-4.17762-4.76286-10.45228.2857.60288.63413,1.1789,1.04051,1.72019,1.49798,1.97432,3.5126,2.97561,5.98813,2.97561,5.42432,0,8.29139-2.70633,8.29139-7.82684,0-2.40583-2.78095-7.27652-8.04244-14.08527-.14089-.18232-.24074-.31163-.29048-.37883Zm-45.16364,83.7l-.10708-.14412c-4.49309-6.04409-7.45144-10.47016-8.11669-12.1433l-.35946-.90417-.3597.90417c-.66513,1.67314-3.62348,6.09921-8.11657,12.1433l-.10708.14412c-.04974.06721-.14971.19651-.29048.37883-5.2615,6.80874-8.04257,11.67944-8.04257,14.08527,0,5.12051,2.8672,7.82684,8.29152,7.82684,2.47025,0,4.47165-.99142,5.94917-2.94655.39364-.52608.73129-1.08564,1.00805-1.67104-.35554,6.25621-2.12672,8.22622-4.69156,10.37406l-.72945.61099h14.1771l-.72945-.61099c-2.60686-2.18349-4.40635-4.17762-4.76286-10.45228.2857.60288.63413,1.1789,1.04051,1.72019,1.49798,1.97432,3.5126,2.97561,5.98813,2.97561,5.42432,0,8.29139-2.70633,8.29139-7.82684,0-2.40583-2.78095-7.27652-8.04244-14.08527-.14089-.18232-.24074-.31163-.29048-.37883Zm45.20517,76.87582c-2.47025,0-4.47177.99142-5.94929,2.94661-.39352.52602-.73116,1.08564-1.00805,1.67104.35554-6.25627,2.12685-8.22622,4.69168-10.37406l.72933-.61099h-14.1771l.72945.61099c2.60698,2.18349,4.40635,4.17756,4.76286,10.45223-.28558-.60282-.63401-1.17885-1.04051-1.72014-1.49786-1.97432-3.51248-2.97567-5.98813-2.97567-5.42419,0-8.29139,2.70639-8.29139,7.82684,0,2.40583,2.78107,7.27658,8.04257,14.08532.14077.18232.24074.31151.29048.37883l.10695.14406c4.49309,6.04409,7.45144,10.47022,8.11669,12.14336l.35958.90412.35958-.90412c.66525-1.67314,3.6236-6.09927,8.11669-12.14336l.10695-.14406c.04986-.06732.14971-.19651.2906-.37883,5.2615-6.80874,8.04244-11.67949,8.04244-14.08532,0-5.12045-2.86708-7.82684-8.29139-7.82684Zm-90.32727,0c-2.47025,0-4.47177.99142-5.94929,2.94661-.39352.52602-.73116,1.08564-1.00805,1.67104.35554-6.25627,2.12685-8.22622,4.69168-10.37406l.72933-.61099h-14.1771l.72945.61099c2.60698,2.18349,4.40635,4.17756,4.76286,10.45223-.28558-.60282-.63401-1.17885-1.04051-1.72014-1.49786-1.97432-3.51248-2.97567-5.98813-2.97567-5.42419,0-8.29139,2.70639-8.29139,7.82684,0,2.40583,2.78107,7.27658,8.04257,14.08532.14077.18232.24074.31151.29048.37883l.10695.14406c4.49309,6.04409,7.45144,10.47022,8.11669,12.14336l.35958.90412.35958-.90412c.66525-1.67314,3.6236-6.09927,8.11669-12.14336l.10695-.14406c.04986-.06732.14971-.19651.2906-.37883,5.2615-6.80874,8.04244-11.67949,8.04244-14.08532,0-5.12045-2.86708-7.82684-8.29139-7.82684Z"/></svg>