<?xml version="1.0" encoding="UTF-8"?><svg id="Layer_1" xmlns="http://www.w3.org/2000/svg" viewBox="0 0 180 252"><defs><style>.cls-1,.cls-2,.cls-3{stroke-width:0px;}.cls-2{fill:#231f20;}.cls-3{fill:#fff;}</style></defs><path class="cls-2" d="m164.21048,0H15.78904C7.08285,0,0,6.62741,0,14.77379v222.45243c0,8.14615,7.08285,14.77379,15.78904,14.77379h148.42144c8.70643,0,15.78952-6.62764,15.78952-14.77379V14.77379c0-8.14637-7.08309-14.77379-15.78952-14.77379Zm13.92874,237.22621c0,7.18625-6.24865,13.03265-13.92874,13.03265H15.78904c-7.68009,0-13.92825-5.8464-13.92825-13.03265V14.77379C1.86078,7.58753,8.10894,1.74113,15.78904,1.74113h148.42144c7.68009,0,13.92874,5.8464,13.92874,13.03265v222.45243Z"/><path class="cls-3" d="m178.13922,14.77379v222.45243c0,7.18625-6.24865,13.03265-13.92874,13.03265H15.78904c-7.68009,0-13.92825-5.8464-13.92825-13.03265V14.77379C1.86078,7.58753,8.10894,1.74113,15.78904,1.74113h148.42144c7.68009,0,13.92874,5.8464,13.92874,13.03265Z"/><path class="cls-1" d="m14.72727,37.65c2.77997,0,5.01818-2.07388,5.01818-4.65v-4.65c0-2.57612-2.23821-4.65-5.01818-4.65-.91469,0-1.77229.23182-2.50909.62484v-5.27484c0-1.28806,1.11904-2.325,2.50909-2.325s2.50909,1.03694,2.50909,2.325v.465h2.50909v-.465c0-2.57612-2.23821-4.65-5.01818-4.65s-5.01818,2.07388-5.01818,4.65v13.95c0,2.57612,2.23809,4.65,5.01818,4.65Zm-2.50909-9.3c0-1.28806,1.11904-2.325,2.50909-2.325s2.50909,1.03694,2.50909,2.325v4.65c0,1.28806-1.11904,2.325-2.50909,2.325s-2.50909-1.03694-2.50909-2.325v-4.65Zm153.05455,186c-2.78009,0-5.01818,2.07388-5.01818,4.65v4.65c0,2.57612,2.23809,4.65,5.01818,4.65.91457,0,1.77205-.23171,2.50909-.62473v5.27473c0,1.28806-1.11917,2.325-2.50909,2.325-1.39005,0-2.50909-1.03694-2.50909-2.325v-.465h-2.50909v.465c0,2.57612,2.23809,4.65,5.01818,4.65s5.01818-2.07388,5.01818-4.65v-13.95c0-2.57612-2.23821-4.65-5.01818-4.65Zm2.50909,9.3c0,1.28806-1.11917,2.325-2.50909,2.325-1.39005,0-2.50909-1.03694-2.50909-2.325v-4.65c0-1.28806,1.11904-2.325,2.50909-2.325,1.38992,0,2.50909,1.03694,2.50909,2.325v4.65ZM18.67578,49.48996c2.34125,3.02971,3.57876,5.19702,3.57876,6.26757,0,2.27845-1.27586,3.48273-3.68952,3.48273-1.10153,0-1.99808-.44559-2.66456-1.32405-.18083-.2409-.33593-.49724-.46298-.7655.15866,2.7921.95941,3.67941,2.11937,4.65102l.32454.27189h-6.30838l.32454-.27189c1.14122-.95577,1.92948-1.8323,2.08764-4.61617-.12313.26043-.27345.5095-.44852.74359-.65753.86995-1.54809,1.3111-2.64729,1.3111-2.41365,0-3.68939-1.20428-3.68939-3.48273,0-1.07054,1.23739-3.23786,3.57864-6.26757.06273-.08111.10708-.13867.12925-.16853l.04766-.06414c1.99931-2.68947,3.31572-4.65897,3.61172-5.40347l.16-.40233.16.40233c.29599.7445,1.61229,2.71399,3.6116,5.40347l.04766.06414c.02218.02986.06665.08741.12925.16853Zm142.64831,153.02019c-2.34125-3.02971-3.57864-5.19702-3.57864-6.26757,0-2.27845,1.27574-3.48273,3.68939-3.48273,1.10153,0,1.99796.44559,2.66456,1.32405.18083.2409.33581.49724.46298.76544-.15866-2.79204-.95929-3.67936-2.11937-4.65096l-.32454-.27189h6.30838l-.32454.27189c-1.14134.95571-1.92948,1.8323-2.08764,4.61617.12325-.26048.27345-.5095.44852-.74359.65753-.86995,1.54809-1.3111,2.64729-1.3111,2.41365,0,3.68952,1.20428,3.68952,3.48273,0,1.07054-1.23752,3.23786-3.57876,6.26757-.0626.08111-.10708.13861-.12925.16853l-.04766.06414c-1.99931,2.68942-3.3156,4.65897-3.6116,5.40347l-.16013.40233-.15988-.40233c-.29612-.7445-1.61253-2.71405-3.61172-5.40347l-.04766-.06414c-.02218-.02991-.06665-.08741-.12925-.16853ZM53.71007,34.94548c5.2615,6.80874,8.04257,11.67944,8.04257,14.08527,0,5.12051-2.8672,7.82684-8.29152,7.82684-2.47552,0-4.49015-1.00129-5.988-2.97561-.4065-.54129-.75493-1.11732-1.04064-1.72019.35652,6.27466,2.156,8.26879,4.76298,10.45228l.72945.61099h-14.17722l.72945-.61099c2.56483-2.14784,4.33615-4.11785,4.69168-10.37406-.27688.58539-.61453,1.14496-1.00817,1.67104-1.47752,1.95513-3.47891,2.94655-5.94917,2.94655-5.42432,0-8.29139-2.70633-8.29139-7.82684,0-2.40583,2.78095-7.27652,8.04244-14.08527.14077-.18232.24074-.31163.29048-.37883l.10708-.14412c4.49309-6.04409,7.45144-10.47016,8.11657-12.1433l.3597-.90417.35946.90417c.66525,1.67314,3.62373,6.09921,8.11681,12.1433l.10695.14412c.04974.06721.14959.19651.29048.37883Zm90.32727,0c5.2615,6.80874,8.04257,11.67944,8.04257,14.08527,0,5.12051-2.8672,7.82684-8.29152,7.82684-2.47552,0-4.49015-1.00129-5.988-2.97561-.4065-.54129-.75493-1.11732-1.04064-1.72019.35652,6.27466,2.156,8.26879,4.76298,10.45228l.72945.61099h-14.17722l.72945-.61099c2.56483-2.14784,4.33615-4.11785,4.69168-10.37406-.27688.58539-.61453,1.14496-1.00817,1.67104-1.47752,1.95513-3.47891,2.94655-5.94917,2.94655-5.42432,0-8.29139-2.70633-8.29139-7.82684,0-2.40583,2.78095-7.27652,8.04244-14.08527.14077-.18232.24074-.31163.29048-.37883l.10708-.14412c4.49309-6.04409,7.45144-10.47016,8.11657-12.1433l.3597-.90417.35946.90417c.66525,1.67314,3.62373,6.09921,8.11681,12.1433l.10695.14412c.04974.06721.14959.19651.29048.37883ZM53.71007,118.64548c5.2615,6.80874,8.04257,11.67944,8.04257,14.08527,0,5.12051-2.8672,7.82684-8.29152,7.82684-2.47552,0-4.49015-1.00129-5.988-2.97561-.4065-.54129-.75493-1.11732-1.04064-1.72019.35652,6.27466,2.156,8.26879,4.76298,10.45228l.72945.61099h-14.17722l.72945-.61099c2.56483-2.14784,4.33615-4.11785,4.69168-10.37406-.27688.58539-.61453,1.14496-1.00817,1.67104-1.47752,1.95513-3.47891,2.94655-5.94917,2.94655-5.42432,0-8.29139-2.70633-8.29139-7.82684,0-2.40583,2.78095-7.27652,8.04244-14.08527.14077-.18232.24074-.31163.29048-.37883l.10708-.14412c4.49309-6.04409,7.45144-10.47016,8.11657-12.1433l.3597-.90417.35946.90417c.66525,1.67314,3.62373,6.09921,8.11681,12.1433l.10695.14412c.04974.06721.14959.19651.29048.37883Zm90.32727,0c5.2615,6.80874,8.04257,11.67944,8.04257,14.08527,0,5.12051-2.8672,7.82684-8.29152,7.82684-2.47552,0-4.49015-1.00129-5.988-2.97561-.4065-.54129-.75493-1.11732-1.04064-1.72019.35652,6.27466,2.156,8.26879,4.76298,10.45228l.72945.61099h-14.17722l.72945-.61099c2.56483-2.14784,4.33615-4.11785,4.69168-10.37406-.27688.58539-.61453,1.14496-1.00817,1.67104-1.47752,1.95513-3.47891,2.94655-5.94917,2.94655-5.42432,0-8.29139-2.70633-8.29139-7.82684,0-2.40583,2.78095-7.27652,8.04244-14.08527.14077-.18232.24074-.31163.29048-.37883l.10708-.14412c4.49309-6.04409,7.45144-10.47016,8.11657-12.1433l.3597-.90417.35946.90417c.66525,1.67314,3.62373,6.09921,8.11681,12.1433l.10695.14412c.04974.06721.14959.19651.29048.37883Zm-82.28471,84.32382c0,2.40583-2.78107,7.27658-8.04257,14.08532-.14089.18232-.24074.31151-.29048.37883l-.10708.14406c-4.49309,6.04409-7.45144,10.47022-8.11669,12.14336l-.35958.90412-.35958-.90412c-.66513-1.67314-3.62348-6.09927-8.11657-12.14336l-.10708-.14406c-.04974-.06732-.14971-.19651-.29048-.37883-5.2615-6.80874-8.04244-11.67949-8.04244-14.08532,0-5.12045,2.86708-7.82684,8.29139-7.82684,2.47552,0,4.49015,1.00135,5.98813,2.97567.40638.54129.75481,1.11732,1.04039,1.72014-.35652-6.27466-2.15588-8.26874-4.76286-10.45223l-.72945-.61099h14.1771l-.72933.61099c-2.56483,2.14784-4.33615,4.11779-4.69168,10.37406.27688-.58539.61453-1.14502,1.00805-1.67104,1.47764-1.95519,3.47904-2.94661,5.94929-2.94661,5.42432,0,8.29152,2.70639,8.29152,7.82684Zm90.32727,0c0,2.40583-2.78107,7.27658-8.04257,14.08532-.14089.18232-.24074.31151-.29048.37883l-.10708.14406c-4.49309,6.04409-7.45144,10.47022-8.11669,12.14336l-.35958.90412-.35958-.90412c-.66513-1.67314-3.62348-6.09927-8.11657-12.14336l-.10708-.14406c-.04974-.06732-.14971-.19651-.29048-.37883-5.2615-6.80874-8.04244-11.67949-8.04244-14.08532,0-5.12045,2.86708-7.82684,8.29139-7.82684,2.47552,0,4.49015,1.00135,5.98813,2.97567.40638.54129.75481,1.11732,1.04039,1.72014-.35652-6.27466-2.15588-8.26874-4.76286-10.45223l-.72945-.61099h14.1771l-.72933.61099c-2.56483,2.14784-4.33615,4.11779-4.69168,10.37406.27688-.58539.61453-1.14502,1.00805-1.67104,1.47764-1.95519,3.47904-2.94661,5.94929-2.94661,5.42432,0,8.29152,2.70639,8.29152,7.82684Z"/></svg>