<?xml version="1.0" encoding="UTF-8"?><svg id="Layer_1" xmlns="http://www.w3.org/2000/svg" viewBox="0 0 180 252"><defs><style>.cls-1{fill:#231f20;}.cls-1,.cls-2,.cls-3{stroke-width:0px;}.cls-2{fill:#fff;}.cls-3{fill:#ec2024;}</style></defs><path class="cls-1" d="m164.21048,0H15.78904C7.08285,0,0,6.62741,0,14.77379v222.45243c0,8.14615,7.08285,14.77379,15.78904,14.77379h148.42144c8.70643,0,15.78952-6.62764,15.78952-14.77379V14.77379c0-8.14637-7.08309-14.77379-15.78952-14.77379Zm13.92874,237.22621c0,7.18625-6.24865,13.03265-13.92874,13.03265H15.78904c-7.68009,0-13.92825-5.8464-13.92825-13.03265V14.77379C1.86078,7.58753,8.10894,1.74113,15.78904,1.74113h148.42144c7.68009,0,13.92874,5.8464,13.92874,13.03265v222.45243Z"/><path class="cls-2" d="m178.13922,14.77379v222.45243c0,7.18625-6.24865,13.03265-13.92874,13.03265H15.78904c-7.68009,0-13.92825-5.8464-13.92825-13.03265V14.77379C1.86078,7.58753,8.10894,1.74113,15.78904,1.74113h148.42144c7.68009,0,13.92874,5.8464,13.92874,13.03265Z"/><path class="cls-3" d="m12.64159,31.605h4.17136l1.17614,6.045h2.50909l-4.51636-23.25h-2.50909l-4.51636,23.25h2.50909l1.17614-6.045Zm2.08568-10.73859l1.63091,8.41359h-3.26182l1.63091-8.41359Zm152.63114,199.52859h-4.17136l-1.17614-6.045h-2.50909l4.51636,23.25h2.50909l4.51636-23.25h-2.50909l-1.17614,6.045Zm-2.08568,10.73859h0l-1.63091-8.41359h3.26182l-1.63091,8.41359Zm-60.21818-116.75859c-.00934.41755-.01424.85473,0,1.30781,0,3.39384-1.34331,6.68528-2.50909,9.765-1.19886,3.16713-2.92739,5.94305-4.54773,8.77687-2.5097,4.38935-7.99773,12.70031-7.99773,12.70031,0,0-5.48802-8.31097-7.99773-12.70031-1.62034-2.83382-3.34886-5.60974-4.54773-8.77687-1.16581-3.07972-2.50909-6.37116-2.50909-9.765.00913-.42833.01752-.86347,0-1.30781,0-5.13623,3.37006-9.3,7.52727-9.3s7.02545,3.23377,7.02545,8.37c0,.93,1.00364.93,1.00364,0,0-5.13623,2.86824-8.37,7.02545-8.37s7.52727,4.16377,7.52727,9.3ZM22.25455,46.95c-.00469.20877-.00714.42742,0,.65391,0,1.69698-.67165,3.34264-1.25455,4.8825-.59943,1.58357-1.46371,2.97153-2.27386,4.38844-1.25485,2.19467-3.99886,6.35016-3.99886,6.35016,0,0-2.74401-4.15548-3.99886-6.35016-.81019-1.41691-1.67443-2.80487-2.27386-4.38844-.58289-1.53986-1.25455-3.18552-1.25455-4.8825.00456-.21411.00876-.43162,0-.65391,0-2.56806,1.68503-4.65,3.76364-4.65s3.51273,1.61694,3.51273,4.185c0,.465.50182.465.50182,0,0-2.56806,1.43412-4.185,3.51273-4.185s3.76364,2.08194,3.76364,4.65Zm150.54545,157.44609c-.00714.2266-.00453.44525,0,.65391,0,2.56817-1.68506,4.65-3.76364,4.65s-3.51273-1.61683-3.51273-4.185c0-.465-.50182-.465-.50182,0,0,2.56817-1.43415,4.185-3.51273,4.185s-3.76364-2.08183-3.76364-4.65c.00873-.22206.0045-.43968,0-.65391,0-1.69686.67162-3.34253,1.25455-4.8825.59943-1.58345,1.46368-2.97141,2.27386-4.38844,1.25485-2.19467,3.99886-6.35016,3.99886-6.35016,0,0,2.74401,4.15548,3.99886,6.35016.81016,1.41702,1.67443,2.80499,2.27386,4.38844.58289,1.53997,1.25455,3.18564,1.25455,4.8825Z"/></svg>