<?xml version="1.0" encoding="UTF-8"?><svg id="Layer_1" xmlns="http://www.w3.org/2000/svg" viewBox="0 0 180 252"><defs><style>.cls-1{fill:#231f20;}.cls-1,.cls-2,.cls-3{stroke-width:0px;}.cls-2{fill:#fff;}.cls-3{fill:#ec2024;}</style></defs><path class="cls-1" d="m164.21048,0H15.78904C7.08285,0,0,6.62741,0,14.77379v222.45243c0,8.14615,7.08285,14.77379,15.78904,14.77379h148.42144c8.70643,0,15.78952-6.62764,15.78952-14.77379V14.77379c0-8.14637-7.08309-14.77379-15.78952-14.77379Zm13.92874,237.22621c0,7.18625-6.24865,13.03265-13.92874,13.03265H15.78904c-7.68009,0-13.92825-5.8464-13.92825-13.03265V14.77379C1.86078,7.58753,8.10894,1.74113,15.78904,1.74113h148.42144c7.68009,0,13.92874,5.8464,13.92874,13.03265v222.45243Z"/><path class="cls-2" d="m178.13922,14.77379v222.45243c0,7.18625-6.24865,13.03265-13.92874,13.03265H15.78904c-7.68009,0-13.92825-5.8464-13.92825-13.03265V14.77379C1.86078,7.58753,8.10894,1.74113,15.78904,1.74113h148.42144c7.68009,0,13.92874,5.8464,13.92874,13.03265Z"/><path class="cls-3" d="m9.63529,17.655l-2.43529,3.255v-3.255l2.43529-3.255h2.43529v23.25h-2.43529v-19.995Zm14.61176,1.395v13.95c0,2.57612-2.17238,4.65-4.87059,4.65s-4.87059-2.07388-4.87059-4.65v-13.95c0-2.576,2.17226-4.65,4.87059-4.65s4.87059,2.074,4.87059,4.65Zm-2.43529,0c0-1.28806-1.08613-2.325-2.43529-2.325s-2.43529,1.03694-2.43529,2.325v13.95c0,1.28806,1.08613,2.325,2.43529,2.325s2.43529-1.03694,2.43529-2.325v-13.95Zm148.55294,215.295v-19.995h-2.43529v23.25h2.43529l2.43529-3.255v-3.255l-2.43529,3.255Zm-4.87059-15.345v13.95c0,2.57612-2.17226,4.65-4.87059,4.65s-4.87059-2.07388-4.87059-4.65v-13.95c0-2.576,2.17226-4.65,4.87059-4.65s4.87059,2.074,4.87059,4.65Zm-2.43529,0c0-1.28806-1.08613-2.325-2.43529-2.325s-2.43529,1.03694-2.43529,2.325v13.95c0,1.28806,1.08613,2.325,2.43529,2.325s2.43529-1.03694,2.43529-2.325v-13.95ZM20.59412,42.3c-2.01756,0-3.40941,1.61694-3.40941,4.185,0,.465-.48706.465-.48706,0,0-2.56806-1.39197-4.185-3.40941-4.185-2.01756,0-3.65294,2.08194-3.65294,4.65.00844.22228.0044.4398,0,.65391,0,1.69698.65187,3.34264,1.21765,4.8825.58171,1.58357,1.42051,2.97153,2.20699,4.38844,1.21788,2.19467,3.88125,6.35016,3.88125,6.35016,0,0,2.66325-4.15548,3.88125-6.35016.78624-1.41691,1.62515-2.80487,2.20699-4.38844.56566-1.53986,1.21765-3.18552,1.21765-4.8825-.00702-.22648-.00464-.44513,0-.65391,0-2.56806-1.6355-4.65-3.65294-4.65Zm149.77059,162.75c-.00452-.20866-.0069-.42731,0-.65391,0-1.69686-.65187-3.34253-1.21765-4.8825-.58195-1.58345-1.42075-2.97141-2.20699-4.38844-1.21788-2.19467-3.88125-6.35016-3.88125-6.35016,0,0-2.66337,4.15548-3.88125,6.35016-.78648,1.41702-1.62527,2.80499-2.20699,4.38844-.56578,1.53997-1.21765,3.18564-1.21765,4.8825.00428.21422.00832.43185,0,.65391,0,2.56817,1.6355,4.65,3.65294,4.65s3.40941-1.61683,3.40941-4.185c0-.465.48706-.465.48706,0,0,2.56817,1.39197,4.185,3.40941,4.185s3.65294-2.08183,3.65294-4.65ZM53.47059,21.375c-4.035,0-6.81882,3.23377-6.81882,8.37,0,.93-.97412.93-.97412,0,0-5.13623-2.78394-8.37-6.81882-8.37s-7.30588,4.16377-7.30588,9.3c.01689.44434.0088.87948,0,1.30781,0,3.39384,1.30374,6.68528,2.43529,9.765,1.16354,3.16713,2.84126,5.94305,4.41397,8.77688,2.43577,4.38935,7.7625,12.70031,7.7625,12.70031,0,0,5.32649-8.31097,7.7625-12.70031,1.57271-2.83382,3.25031-5.60974,4.41397-8.77688,1.13132-3.07972,2.43529-6.37116,2.43529-9.765-.01379-.45308-.00904-.89027,0-1.30781,0-5.13623-3.271-9.3-7.30588-9.3Zm87.67059,0c-4.03512,0-6.81882,3.23377-6.81882,8.37,0,.93-.97412.93-.97412,0,0-5.13623-2.78394-8.37-6.81882-8.37-4.03512,0-7.30588,4.16377-7.30588,9.3.01689.44434.0088.87948,0,1.30781,0,3.39384,1.30374,6.68528,2.43529,9.765,1.16366,3.16713,2.84126,5.94305,4.41397,8.77688,2.43577,4.38935,7.7625,12.70031,7.7625,12.70031,0,0,5.32649-8.31097,7.7625-12.70031,1.57271-2.83382,3.25031-5.60974,4.41397-8.77688,1.13132-3.07972,2.43529-6.37116,2.43529-9.765-.01403-.45308-.00904-.89027,0-1.30781,0-5.13623-3.271-9.3-7.30588-9.3Zm-43.83529,27.9c-4.03512,0-6.81882,3.23377-6.81882,8.37,0,.93-.97412.93-.97412,0,0-5.13623-2.78394-8.37-6.81882-8.37-4.03512,0-7.30588,4.16377-7.30588,9.3.01689.44434.0088.87948,0,1.30781,0,3.39384,1.30374,6.68528,2.43529,9.765,1.16366,3.16713,2.84126,5.94305,4.41397,8.77688,2.43577,4.38935,7.7625,12.70031,7.7625,12.70031,0,0,5.32649-8.31097,7.7625-12.70031,1.57271-2.83382,3.25031-5.60974,4.41397-8.77688,1.13132-3.07972,2.43529-6.37116,2.43529-9.765-.01379-.45308-.00904-.89027,0-1.30781,0-5.13623-3.271-9.3-7.30588-9.3Zm-43.83529,27.9c-4.035,0-6.81882,3.23377-6.81882,8.37,0,.93-.97412.93-.97412,0,0-5.13623-2.78394-8.37-6.81882-8.37s-7.30588,4.16377-7.30588,9.3c.01689.44434.0088.87948,0,1.30781,0,3.39384,1.30374,6.68528,2.43529,9.765,1.16354,3.16713,2.84126,5.94305,4.41397,8.77688,2.43577,4.38935,7.7625,12.70031,7.7625,12.70031,0,0,5.32649-8.31097,7.7625-12.70031,1.57271-2.83382,3.25031-5.60974,4.41397-8.77688,1.13132-3.07972,2.43529-6.37116,2.43529-9.765-.01379-.45308-.00904-.89027,0-1.30781,0-5.13623-3.271-9.3-7.30588-9.3Zm87.67059,0c-4.03512,0-6.81882,3.23377-6.81882,8.37,0,.93-.97412.93-.97412,0,0-5.13623-2.78394-8.37-6.81882-8.37-4.03512,0-7.30588,4.16377-7.30588,9.3.01689.44434.0088.87948,0,1.30781,0,3.39384,1.30374,6.68528,2.43529,9.765,1.16366,3.16713,2.84126,5.94305,4.41397,8.77688,2.43577,4.38935,7.7625,12.70031,7.7625,12.70031,0,0,5.32649-8.31097,7.7625-12.70031,1.57271-2.83382,3.25031-5.60974,4.41397-8.77688,1.13132-3.07972,2.43529-6.37116,2.43529-9.765-.01403-.45308-.00904-.89027,0-1.30781,0-5.13623-3.271-9.3-7.30588-9.3Zm-82.8,77.27719c-1.16366-3.16702-2.84126-5.94294-4.41397-8.77688-2.43601-4.38923-7.7625-12.70031-7.7625-12.70031,0,0-5.32673,8.31108-7.7625,12.70031-1.57271,2.83393-3.25043,5.60986-4.41397,8.77688-1.13156,3.07983-2.43529,6.37127-2.43529,9.765.0088.42844.01689.86347,0,1.30781,0,5.13634,3.27088,9.3,7.30588,9.3s6.81882-3.23366,6.81882-8.37c0-.93.97412-.93.97412,0,0,5.13634,2.78382,8.37,6.81882,8.37s7.30588-4.16366,7.30588-9.3c-.00904-.41743-.01379-.85462,0-1.30781,0-3.39373-1.30398-6.68517-2.43529-9.765Zm87.67059,0c-1.16366-3.16702-2.84126-5.94294-4.41397-8.77688-2.43601-4.38923-7.7625-12.70031-7.7625-12.70031,0,0-5.32673,8.31108-7.7625,12.70031-1.57271,2.83393-3.25031,5.60986-4.41397,8.77688-1.13156,3.07983-2.43529,6.37127-2.43529,9.765.0088.42844.01689.86347,0,1.30781,0,5.13634,3.27076,9.3,7.30588,9.3,4.03488,0,6.81882-3.23366,6.81882-8.37,0-.93.97412-.93.97412,0,0,5.13634,2.7837,8.37,6.81882,8.37,4.03488,0,7.30588-4.16366,7.30588-9.3-.00904-.41743-.01403-.85462,0-1.30781,0-3.39373-1.30398-6.68517-2.43529-9.765Zm-43.83529,27.9c-1.16366-3.16702-2.84126-5.94294-4.41397-8.77687-2.43601-4.38923-7.7625-12.70031-7.7625-12.70031,0,0-5.32673,8.31108-7.7625,12.70031-1.57271,2.83393-3.25031,5.60986-4.41397,8.77687-1.13156,3.07983-2.43529,6.37127-2.43529,9.765.0088.42844.01689.86347,0,1.30781,0,5.13634,3.27076,9.3,7.30588,9.3,4.03488,0,6.81882-3.23366,6.81882-8.37,0-.93.97412-.93.97412,0,0,5.13634,2.7837,8.37,6.81882,8.37,4.03488,0,7.30588-4.16366,7.30588-9.3-.00904-.41743-.01379-.85462,0-1.30781,0-3.39373-1.30398-6.68517-2.43529-9.765Zm-43.83529,27.9c-1.16366-3.16702-2.84126-5.94294-4.41397-8.77687-2.43601-4.38923-7.7625-12.70031-7.7625-12.70031,0,0-5.32673,8.31108-7.7625,12.70031-1.57271,2.83393-3.25043,5.60986-4.41397,8.77687-1.13156,3.07983-2.43529,6.37127-2.43529,9.765.0088.42844.01689.86347,0,1.30781,0,5.13634,3.27088,9.3,7.30588,9.3s6.81882-3.23366,6.81882-8.37c0-.93.97412-.93.97412,0,0,5.13634,2.78382,8.37,6.81882,8.37s7.30588-4.16366,7.30588-9.3c-.00904-.41743-.01379-.85462,0-1.30781,0-3.39373-1.30398-6.68517-2.43529-9.765Zm87.67059,0c-1.16366-3.16702-2.84126-5.94294-4.41397-8.77687-2.43601-4.38923-7.7625-12.70031-7.7625-12.70031,0,0-5.32673,8.31108-7.7625,12.70031-1.57271,2.83393-3.25031,5.60986-4.41397,8.77687-1.13156,3.07983-2.43529,6.37127-2.43529,9.765.0088.42844.01689.86347,0,1.30781,0,5.13634,3.27076,9.3,7.30588,9.3,4.03488,0,6.81882-3.23366,6.81882-8.37,0-.93.97412-.93.97412,0,0,5.13634,2.7837,8.37,6.81882,8.37,4.03488,0,7.30588-4.16366,7.30588-9.3-.00904-.41743-.01403-.85462,0-1.30781,0-3.39373-1.30398-6.68517-2.43529-9.765Z"/></svg>