<?xml version="1.0" encoding="UTF-8"?><svg id="Layer_1" xmlns="http://www.w3.org/2000/svg" viewBox="0 0 180 252"><defs><style>.cls-1{fill:#231f20;}.cls-1,.cls-2,.cls-3{stroke-width:0px;}.cls-2{fill:#fff;}.cls-3{fill:#ec2024;}</style></defs><path class="cls-1" d="m164.21048,0H15.78904C7.08285,0,0,6.62741,0,14.77379v222.45243c0,8.14615,7.08285,14.77379,15.78904,14.77379h148.42144c8.70643,0,15.78952-6.62764,15.78952-14.77379V14.77379c0-8.14637-7.08309-14.77379-15.78952-14.77379Zm13.92874,237.22621c0,7.18625-6.24865,13.03265-13.92874,13.03265H15.78904c-7.68009,0-13.92825-5.8464-13.92825-13.03265V14.77379C1.86078,7.58753,8.10894,1.74113,15.78904,1.74113h148.42144c7.68009,0,13.92874,5.8464,13.92874,13.03265v222.45243Z"/><path class="cls-2" d="m178.13922,14.77379v222.45243c0,7.18625-6.24865,13.03265-13.92874,13.03265H15.78904c-7.68009,0-13.92825-5.8464-13.92825-13.03265V14.77379C1.86078,7.58753,8.10894,1.74113,15.78904,1.74113h148.42144c7.68009,0,13.92874,5.8464,13.92874,13.03265Z"/><path class="cls-3" d="m15.73091,33h-6.02182v-2.325l5.01818-16.275h2.60943l-5.01812,16.275h3.41233v-6.975h2.50909v6.975h1.50545v2.325h-1.50545v4.65h-2.50909v-4.65Zm148.53818,181.35h-2.50909v4.65h-1.50545v2.325h1.50545v6.975h2.50909v-6.975h3.41233l-5.01818,16.275h2.60949l5.01818-16.275v-2.325h-6.02182v-4.65ZM18.49091,42.3c-2.07864,0-3.51273,1.61694-3.51273,4.185,0,.465-.50182.465-.50182,0,0-2.56806-1.43409-4.185-3.51273-4.185s-3.76364,2.08194-3.76364,4.65c.00876.22228.00459.4398,0,.65391,0,1.69698.67168,3.34264,1.25455,4.8825.5994,1.58357,1.46368,2.97153,2.27386,4.38844,1.25485,2.19467,3.99886,6.35016,3.99886,6.35016,0,0,2.74401-4.15548,3.99886-6.35016.81013-1.41691,1.67446-2.80487,2.27386-4.38844.58286-1.53986,1.25455-3.18552,1.25455-4.8825-.00717-.22648-.00472-.44513,0-.65391,0-2.56806-1.685-4.65-3.76364-4.65Zm153.05455,157.21359c-.5994-1.58345-1.46374-2.97141-2.27386-4.38844-1.25485-2.19467-3.99886-6.35016-3.99886-6.35016,0,0-2.74401,4.15548-3.99886,6.35016-.81019,1.41702-1.67446,2.80499-2.27386,4.38844-.58292,1.53997-1.25455,3.18564-1.25455,4.8825.00447.21422.00876.43185,0,.65391,0,2.56817,1.685,4.65,3.76364,4.65s3.51273-1.61683,3.51273-4.185c0-.465.50182-.465.50182,0,0,2.56817,1.43409,4.185,3.51273,4.185s3.76364-2.08183,3.76364-4.65c-.00453-.20866-.00717-.42731,0-.65391,0-1.69686-.67168-3.34253-1.25455-4.8825ZM52.36364,21.375c-4.15721,0-7.02545,3.23377-7.02545,8.37,0,.93-1.00364.93-1.00364,0,0-5.13623-2.86824-8.37-7.02545-8.37s-7.52727,4.16377-7.52727,9.3c.01752.44434.00913.87948,0,1.30781,0,3.39384,1.34331,6.68528,2.50909,9.765,1.19886,3.16713,2.92742,5.94305,4.54773,8.77688,2.5097,4.38935,7.99773,12.70031,7.99773,12.70031,0,0,5.48802-8.31097,7.99773-12.70031,1.62031-2.83382,3.34886-5.60974,4.54773-8.77688,1.16578-3.07972,2.50909-6.37116,2.50909-9.765-.01427-.45308-.00937-.89027,0-1.30781,0-5.13623-3.37006-9.3-7.52727-9.3Zm90.32727,0c-4.15721,0-7.02545,3.23377-7.02545,8.37,0,.93-1.00364.93-1.00364,0,0-5.13623-2.86824-8.37-7.02545-8.37s-7.52727,4.16377-7.52727,9.3c.01752.44434.00913.87948,0,1.30781,0,3.39384,1.34331,6.68528,2.50909,9.765,1.19886,3.16713,2.92742,5.94305,4.54773,8.77688,2.5097,4.38935,7.99773,12.70031,7.99773,12.70031,0,0,5.48802-8.31097,7.99773-12.70031,1.62031-2.83382,3.34886-5.60974,4.54773-8.77688,1.16578-3.07972,2.50909-6.37116,2.50909-9.765-.01427-.45308-.00937-.89027,0-1.30781,0-5.13623-3.37006-9.3-7.52727-9.3ZM57.38182,210.25219c-1.19886-3.16702-2.92742-5.94294-4.54773-8.77687-2.5097-4.38923-7.99773-12.70031-7.99773-12.70031,0,0-5.48802,8.31108-7.99773,12.70031-1.62031,2.83393-3.34886,5.60986-4.54773,8.77687-1.16578,3.07983-2.50909,6.37127-2.50909,9.765.00913.42844.01752.86347,0,1.30781,0,5.13634,3.37006,9.3,7.52727,9.3s7.02545-3.23366,7.02545-8.37c0-.93,1.00364-.93,1.00364,0,0,5.13634,2.86824,8.37,7.02545,8.37s7.52727-4.16366,7.52727-9.3c-.00937-.41743-.01427-.85462,0-1.30781,0-3.39373-1.34331-6.68517-2.50909-9.765Zm90.32727,0c-1.19886-3.16702-2.92742-5.94294-4.54773-8.77687-2.5097-4.38923-7.99773-12.70031-7.99773-12.70031,0,0-5.48802,8.31108-7.99773,12.70031-1.62031,2.83393-3.34886,5.60986-4.54773,8.77687-1.16578,3.07983-2.50909,6.37127-2.50909,9.765.00913.42844.01752.86347,0,1.30781,0,5.13634,3.37006,9.3,7.52727,9.3s7.02545-3.23366,7.02545-8.37c0-.93,1.00364-.93,1.00364,0,0,5.13634,2.86824,8.37,7.02545,8.37s7.52727-4.16366,7.52727-9.3c-.00937-.41743-.01427-.85462,0-1.30781,0-3.39373-1.34331-6.68517-2.50909-9.765Z"/></svg>