<?xml version="1.0" encoding="UTF-8"?><svg id="Layer_1" xmlns="http://www.w3.org/2000/svg" viewBox="0 0 180 252"><defs><style>.cls-1{fill:#231f20;}.cls-1,.cls-2,.cls-3{stroke-width:0px;}.cls-2{fill:#fff;}.cls-3{fill:#ec2024;}</style></defs><path class="cls-1" d="m164.21048,0H15.78904C7.08285,0,0,6.62741,0,14.77379v222.45243c0,8.14615,7.08285,14.77379,15.78904,14.77379h148.42144c8.70643,0,15.78952-6.62764,15.78952-14.77379V14.77379c0-8.14637-7.08309-14.77379-15.78952-14.77379Zm13.92874,237.22621c0,7.18625-6.24865,13.03265-13.92874,13.03265H15.78904c-7.68009,0-13.92825-5.8464-13.92825-13.03265V14.77379C1.86078,7.58753,8.10894,1.74113,15.78904,1.74113h148.42144c7.68009,0,13.92874,5.8464,13.92874,13.03265v222.45243Z"/><path class="cls-2" d="m178.13922,14.77379v222.45243c0,7.18625-6.24865,13.03265-13.92874,13.03265H15.78904c-7.68009,0-13.92825-5.8464-13.92825-13.03265V14.77379C1.86078,7.58753,8.10894,1.74113,15.78904,1.74113h148.42144c7.68009,0,13.92874,5.8464,13.92874,13.03265Z"/><path class="cls-3" d="m9.70909,33v-2.325h2.50909v2.325c0,1.28806,1.11904,2.325,2.50909,2.325s2.50909-1.03694,2.50909-2.325v-6.975c0-1.28806-1.11904-2.325-2.50909-2.325h-5.01818v-9.3h10.03636v2.325h-7.52727v4.65h2.50909c2.77997,0,5.01818,2.07388,5.01818,4.65v6.975c0,2.57612-2.23821,4.65-5.01818,4.65s-5.01818-2.07388-5.01818-4.65Zm155.56364,181.35c-2.78009,0-5.01818,2.07388-5.01818,4.65v6.975c0,2.57612,2.23809,4.65,5.01818,4.65h2.50909v4.65h-7.52727v2.325h10.03636v-9.3h-5.01818c-1.39005,0-2.50909-1.03694-2.50909-2.325v-6.975c0-1.28806,1.11904-2.325,2.50909-2.325,1.38992,0,2.50909,1.03694,2.50909,2.325v2.325h2.50909v-2.325c0-2.57612-2.23821-4.65-5.01818-4.65ZM52.36364,21.375c-4.15727,0-7.02545,3.23377-7.02545,8.37,0,.93-1.00364.93-1.00364,0,0-5.13623-2.8683-8.37-7.02545-8.37s-7.52727,4.16377-7.52727,9.3c.0174.44434.00907.87948,0,1.30781,0,3.39384,1.34325,6.68528,2.50909,9.765,1.1988,3.16713,2.92735,5.94305,4.54773,8.77688,2.50958,4.38935,7.99773,12.70031,7.99773,12.70031,0,0,5.4879-8.31097,7.99773-12.70031,1.62025-2.83382,3.3488-5.60974,4.54773-8.77688,1.16572-3.07972,2.50909-6.37116,2.50909-9.765-.01433-.45308-.00943-.89027,0-1.30781,0-5.13623-3.37012-9.3-7.52727-9.3Zm90.32727,0c-4.15727,0-7.02545,3.23377-7.02545,8.37,0,.93-1.00364.93-1.00364,0,0-5.13623-2.8683-8.37-7.02545-8.37s-7.52727,4.16377-7.52727,9.3c.0174.44434.00907.87948,0,1.30781,0,3.39384,1.34325,6.68528,2.50909,9.765,1.1988,3.16713,2.92735,5.94305,4.54773,8.77688,2.50958,4.38935,7.99773,12.70031,7.99773,12.70031,0,0,5.4879-8.31097,7.99773-12.70031,1.62025-2.83382,3.3488-5.60974,4.54773-8.77688,1.16572-3.07972,2.50909-6.37116,2.50909-9.765-.01433-.45308-.00943-.89027,0-1.30781,0-5.13623-3.37012-9.3-7.52727-9.3Zm-45.16364,83.7c-4.15727,0-7.02545,3.23377-7.02545,8.37,0,.93-1.00364.93-1.00364,0,0-5.13623-2.8683-8.37-7.02545-8.37s-7.52727,4.16377-7.52727,9.3c.0174.44434.00907.87948,0,1.30781,0,3.39384,1.34325,6.68528,2.50909,9.765,1.1988,3.16713,2.92735,5.94305,4.54773,8.77687,2.50958,4.38935,7.99773,12.70031,7.99773,12.70031,0,0,5.4879-8.31097,7.99773-12.70031,1.62025-2.83382,3.3488-5.60974,4.54773-8.77687,1.16572-3.07972,2.50909-6.37116,2.50909-9.765-.01433-.45308-.00943-.89027,0-1.30781,0-5.13623-3.37012-9.3-7.52727-9.3Zm-40.14545,105.17719c-1.19892-3.16702-2.92748-5.94294-4.54773-8.77687-2.50983-4.38923-7.99773-12.70031-7.99773-12.70031,0,0-5.48815,8.31108-7.99773,12.70031-1.62037,2.83393-3.34893,5.60986-4.54773,8.77687-1.16585,3.07983-2.50909,6.37127-2.50909,9.765.00907.42844.0174.86347,0,1.30781,0,5.13634,3.37,9.3,7.52727,9.3s7.02545-3.23366,7.02545-8.37c0-.93,1.00364-.93,1.00364,0,0,5.13634,2.86818,8.37,7.02545,8.37s7.52727-4.16366,7.52727-9.3c-.00943-.41743-.01433-.85462,0-1.30781,0-3.39373-1.34337-6.68517-2.50909-9.765Zm90.32727,0c-1.19892-3.16702-2.92748-5.94294-4.54773-8.77687-2.50983-4.38923-7.99773-12.70031-7.99773-12.70031,0,0-5.48815,8.31108-7.99773,12.70031-1.62037,2.83393-3.34893,5.60986-4.54773,8.77687-1.16585,3.07983-2.50909,6.37127-2.50909,9.765.00907.42844.0174.86347,0,1.30781,0,5.13634,3.37,9.3,7.52727,9.3s7.02545-3.23366,7.02545-8.37c0-.93,1.00364-.93,1.00364,0,0,5.13634,2.86818,8.37,7.02545,8.37s7.52727-4.16366,7.52727-9.3c-.00943-.41743-.01433-.85462,0-1.30781,0-3.39373-1.34337-6.68517-2.50909-9.765ZM18.49091,42.3c-2.0787,0-3.51273,1.61694-3.51273,4.185,0,.465-.50182.465-.50182,0,0-2.56806-1.43415-4.185-3.51273-4.185-2.0787,0-3.76364,2.08194-3.76364,4.65.0087.22228.00453.4398,0,.65391,0,1.69698.67162,3.34264,1.25455,4.8825.59934,1.58357,1.46355,2.97153,2.27386,4.38844,1.25479,2.19467,3.99886,6.35016,3.99886,6.35016,0,0,2.74395-4.15548,3.99886-6.35016.81006-1.41691,1.6744-2.80487,2.27386-4.38844.5828-1.53986,1.25455-3.18552,1.25455-4.8825-.00723-.22648-.00478-.44513,0-.65391,0-2.56806-1.68506-4.65-3.76364-4.65Zm153.05455,157.21359c-.59946-1.58345-1.4638-2.97141-2.27386-4.38844-1.25491-2.19467-3.99886-6.35016-3.99886-6.35016,0,0-2.74407,4.15548-3.99886,6.35016-.81031,1.41702-1.67452,2.80499-2.27386,4.38844-.58292,1.53997-1.25455,3.18564-1.25455,4.8825.00441.21422.0087.43185,0,.65391,0,2.56817,1.68494,4.65,3.76364,4.65,2.07858,0,3.51273-1.61683,3.51273-4.185,0-.465.50182-.465.50182,0,0,2.56817,1.43403,4.185,3.51273,4.185,2.07858,0,3.76364-2.08183,3.76364-4.65-.00466-.20866-.00723-.42731,0-.65391,0-1.69686-.67175-3.34253-1.25455-4.8825Z"/></svg>