<?xml version="1.0" encoding="UTF-8"?>
<svg id="Layer_1" data-name="Layer 1" xmlns="http://www.w3.org/2000/svg" viewBox="0 0 180 252">
  <defs>
    <style>
      .cls-1, .cls-2, .cls-3 {
        stroke-width: 0px;
      }

      .cls-2 {
        fill: #231f20;
      }

      .cls-3 {
        fill: #fff;
      }
    </style>
  </defs>
  <path class="cls-2" d="m164.21048,0H15.78904C7.08285,0,0,6.62741,0,14.77379v222.45243c0,8.14615,7.08285,14.77379,15.78904,14.77379h148.42144c8.70643,0,15.78952-6.62764,15.78952-14.77379V14.77379c0-8.14637-7.08309-14.77379-15.78952-14.77379Zm13.92874,237.22621c0,7.18625-6.24865,13.03265-13.92874,13.03265H15.78904c-7.68009,0-13.92825-5.8464-13.92825-13.03265V14.77379C1.86078,7.58753,8.10894,1.74113,15.78904,1.74113h148.42144c7.68009,0,13.92874,5.8464,13.92874,13.03265v222.45243Z"/>
  <path class="cls-3" d="m178.13922,14.77379v222.45243c0,7.18625-6.24865,13.03265-13.92874,13.03265H15.78904c-7.68009,0-13.92825-5.8464-13.92825-13.03265V14.77379C1.86078,7.58753,8.10894,1.74113,15.78904,1.74113h148.42144c7.68009,0,13.92874,5.8464,13.92874,13.03265Z"/>
  <path class="cls-1" d="m9.63529,17.655l-2.43529,3.255v-3.255l2.43529-3.255h2.43529v23.25h-2.43529v-19.995Zm14.61176,1.395v13.95c0,2.57612-2.17238,4.65-4.87059,4.65s-4.87059-2.07388-4.87059-4.65v-13.95c0-2.576,2.17226-4.65,4.87059-4.65s4.87059,2.074,4.87059,4.65Zm-2.43529,0c0-1.28806-1.08613-2.325-2.43529-2.325s-2.43529,1.03694-2.43529,2.325v13.95c0,1.28806,1.08613,2.325,2.43529,2.325s2.43529-1.03694,2.43529-2.325v-13.95Zm148.55294,215.295v-19.995h-2.43529v23.25h2.43529l2.43529-3.255v-3.255l-2.43529,3.255Zm-4.87059-15.345v13.95c0,2.57612-2.17226,4.65-4.87059,4.65s-4.87059-2.07388-4.87059-4.65v-13.95c0-2.576,2.17226-4.65,4.87059-4.65s4.87059,2.074,4.87059,4.65Zm-2.43529,0c0-1.28806-1.08613-2.325-2.43529-2.325s-2.43529,1.03694-2.43529,2.325v13.95c0,1.28806,1.08613,2.325,2.43529,2.325s2.43529-1.03694,2.43529-2.325v-13.95ZM21.08118,49.0425c-1.21765,0-1.94824,1.1625-2.67882,1.86-.24353.2325-.48706,0-.24353-.2325.73059-.6975,1.94824-2.5575,1.94824-4.185,0-1.86-1.21765-4.185-3.16588-4.185s-3.16588,2.325-3.16588,4.185c0,1.6275,1.21765,3.4875,1.94824,4.185.24353.2325,0,.465-.24353.2325-.73059-.6975-1.46118-1.86-2.67882-1.86-2.19176,0-3.16588,2.0925-3.16588,4.4175s.97412,4.185,3.16588,4.185c1.21765,0,2.43529-1.395,2.92235-2.325.24353-.2325.24353,0,.24353.2325-.24353,1.86-.24353,2.325-.48706,3.72s-.97412,3.9525-.97412,3.9525c1.21765-.465,3.65294-.465,4.87059,0,0,0-.73059-2.5575-.97412-3.9525s-.24353-1.86-.48706-3.72c0-.2325,0-.465.24353-.2325.48706.93,1.70471,2.325,2.92235,2.325,2.19176,0,3.16588-1.86,3.16588-4.185s-.97412-4.4175-3.16588-4.4175Zm143.43882,152.055c.73059.6975,1.46118,1.86,2.67882,1.86,2.19176,0,3.16588-2.0925,3.16588-4.4175s-.97412-4.185-3.16588-4.185c-1.21765,0-2.43529,1.395-2.92235,2.325-.24353.2325-.24353,0-.24353-.2325.24353-1.86.24353-2.325.48706-3.72s.97412-3.9525.97412-3.9525c-1.21765.465-3.65294.465-4.87059,0,0,0,.73059,2.5575.97412,3.9525s.24353,1.86.48706,3.72c0,.2325,0,.465-.24353.2325-.48706-.93-1.70471-2.325-2.92235-2.325-2.19176,0-3.16588,1.86-3.16588,4.185s.97412,4.4175,3.16588,4.4175c1.21765,0,1.94824-1.1625,2.67882-1.86.24353-.2325.48706,0,.24353.2325-.73059.6975-1.94824,2.5575-1.94824,4.185,0,1.86,1.21765,4.185,3.16588,4.185s3.16588-2.325,3.16588-4.185c0-1.6275-1.21765-3.4875-1.94824-4.185-.24353-.2325,0-.465.24353-.2325ZM54.44471,34.86c-2.43529,0-3.89647,2.325-5.35765,3.72-.48706.465-.97412,0-.48706-.465,1.46118-1.395,3.89647-5.115,3.89647-8.37,0-3.72-2.43529-8.37-6.33176-8.37s-6.33176,4.65-6.33176,8.37c0,3.255,2.43529,6.975,3.89647,8.37.48706.465,0,.93-.48706.465-1.46118-1.395-2.92235-3.72-5.35765-3.72-4.38353,0-6.33176,4.185-6.33176,8.835s1.94824,8.37,6.33176,8.37c2.43529,0,4.87059-2.79,5.84471-4.65.48706-.465.48706,0,.48706.465-.48706,3.72-.48706,4.65-.97412,7.44s-1.94824,7.905-1.94824,7.905c2.43529-.93,7.30588-.93,9.74118,0,0,0-1.46118-5.115-1.94824-7.905s-.48706-3.72-.97412-7.44c0-.465,0-.93.48706-.465.97412,1.86,3.40941,4.65,5.84471,4.65,4.38353,0,6.33176-3.72,6.33176-8.37s-1.94824-8.835-6.33176-8.835Zm87.67059,0c-2.43529,0-3.89647,2.325-5.35765,3.72-.48706.465-.97412,0-.48706-.465,1.46118-1.395,3.89647-5.115,3.89647-8.37,0-3.72-2.43529-8.37-6.33176-8.37s-6.33176,4.65-6.33176,8.37c0,3.255,2.43529,6.975,3.89647,8.37.48706.465,0,.93-.48706.465-1.46118-1.395-2.92235-3.72-5.35765-3.72-4.38353,0-6.33176,4.185-6.33176,8.835s1.94824,8.37,6.33176,8.37c2.43529,0,4.87059-2.79,5.84471-4.65.48706-.465.48706,0,.48706.465-.48706,3.72-.48706,4.65-.97412,7.44s-1.94824,7.905-1.94824,7.905c2.43529-.93,7.30588-.93,9.74118,0,0,0-1.46118-5.115-1.94824-7.905-.48706-2.79-.48706-3.72-.97412-7.44,0-.465,0-.93.48706-.465.97412,1.86,3.40941,4.65,5.84471,4.65,4.38353,0,6.33176-3.72,6.33176-8.37s-1.94824-8.835-6.33176-8.835Zm-43.83529,27.9c-2.43529,0-3.89647,2.325-5.35765,3.72-.48706.465-.97412,0-.48706-.465,1.46118-1.395,3.89647-5.115,3.89647-8.37,0-3.72-2.43529-8.37-6.33176-8.37s-6.33176,4.65-6.33176,8.37c0,3.255,2.43529,6.975,3.89647,8.37.48706.465,0,.93-.48706.465-1.46118-1.395-2.92235-3.72-5.35765-3.72-4.38353,0-6.33176,4.185-6.33176,8.835s1.94824,8.37,6.33176,8.37c2.43529,0,4.87059-2.79,5.84471-4.65.48706-.465.48706,0,.48706.465-.48706,3.72-.48706,4.65-.97412,7.44s-1.94824,7.905-1.94824,7.905c2.43529-.93,7.30588-.93,9.74118,0,0,0-1.46118-5.115-1.94824-7.905s-.48706-3.72-.97412-7.44c0-.465,0-.93.48706-.465.97412,1.86,3.40941,4.65,5.84471,4.65,4.38353,0,6.33176-3.72,6.33176-8.37s-1.94824-8.835-6.33176-8.835Zm-43.83529,27.9c-2.43529,0-3.89647,2.325-5.35765,3.72-.48706.465-.97412,0-.48706-.465,1.46118-1.395,3.89647-5.115,3.89647-8.37,0-3.72-2.43529-8.37-6.33176-8.37s-6.33176,4.65-6.33176,8.37c0,3.255,2.43529,6.975,3.89647,8.37.48706.465,0,.93-.48706.465-1.46118-1.395-2.92235-3.72-5.35765-3.72-4.38353,0-6.33176,4.185-6.33176,8.835s1.94824,8.37,6.33176,8.37c2.43529,0,4.87059-2.79,5.84471-4.65.48706-.465.48706,0,.48706.465-.48706,3.72-.48706,4.65-.97412,7.44s-1.94824,7.905-1.94824,7.905c2.43529-.93,7.30588-.93,9.74118,0,0,0-1.46118-5.115-1.94824-7.905s-.48706-3.72-.97412-7.44c0-.465,0-.93.48706-.465.97412,1.86,3.40941,4.65,5.84471,4.65,4.38353,0,6.33176-3.72,6.33176-8.37s-1.94824-8.835-6.33176-8.835Zm87.67059,0c-2.43529,0-3.89647,2.325-5.35765,3.72-.48706.465-.97412,0-.48706-.465,1.46118-1.395,3.89647-5.115,3.89647-8.37,0-3.72-2.43529-8.37-6.33176-8.37s-6.33176,4.65-6.33176,8.37c0,3.255,2.43529,6.975,3.89647,8.37.48706.465,0,.93-.48706.465-1.46118-1.395-2.92235-3.72-5.35765-3.72-4.38353,0-6.33176,4.185-6.33176,8.835s1.94824,8.37,6.33176,8.37c2.43529,0,4.87059-2.79,5.84471-4.65.48706-.465.48706,0,.48706.465-.48706,3.72-.48706,4.65-.97412,7.44s-1.94824,7.905-1.94824,7.905c2.43529-.93,7.30588-.93,9.74118,0,0,0-1.46118-5.115-1.94824-7.905s-.48706-3.72-.97412-7.44c0-.465,0-.93.48706-.465.97412,1.86,3.40941,4.65,5.84471,4.65,4.38353,0,6.33176-3.72,6.33176-8.37s-1.94824-8.835-6.33176-8.835Zm-87.67059,53.475c-2.43529,0-4.87059,2.79-5.84471,4.65-.48706.465-.48706,0-.48706-.465.48706-3.72.48706-4.65.97412-7.44s1.94824-7.905,1.94824-7.905c-2.43529.93-7.30588.93-9.74118,0,0,0,1.46118,5.115,1.94824,7.905s.48706,3.72.97412,7.44c0,.465,0,.93-.48706.465-.97412-1.86-3.40941-4.65-5.84471-4.65-4.38353,0-6.33176,3.72-6.33176,8.37s1.94824,8.835,6.33176,8.835c2.43529,0,3.89647-2.325,5.35765-3.72.48706-.465.97412,0,.48706.465-1.46118,1.395-3.89647,5.115-3.89647,8.37,0,3.72,2.43529,8.37,6.33176,8.37s6.33176-4.65,6.33176-8.37c0-3.255-2.43529-6.975-3.89647-8.37-.48706-.465,0-.93.48706-.465,1.46118,1.395,2.92235,3.72,5.35765,3.72,4.38353,0,6.33176-4.185,6.33176-8.835s-1.94824-8.37-6.33176-8.37Zm87.67059,0c-2.43529,0-4.87059,2.79-5.84471,4.65-.48706.465-.48706,0-.48706-.465.48706-3.72.48706-4.65.97412-7.44s1.94824-7.905,1.94824-7.905c-2.43529.93-7.30588.93-9.74118,0,0,0,1.46118,5.115,1.94824,7.905s.48706,3.72.97412,7.44c0,.465,0,.93-.48706.465-.97412-1.86-3.40941-4.65-5.84471-4.65-4.38353,0-6.33176,3.72-6.33176,8.37s1.94824,8.835,6.33176,8.835c2.43529,0,3.89647-2.325,5.35765-3.72.48706-.465.97412,0,.48706.465-1.46118,1.395-3.89647,5.115-3.89647,8.37,0,3.72,2.43529,8.37,6.33176,8.37s6.33176-4.65,6.33176-8.37c0-3.255-2.43529-6.975-3.89647-8.37-.48706-.465,0-.93.48706-.465,1.46118,1.395,2.92235,3.72,5.35765,3.72,4.38353,0,6.33176-4.185,6.33176-8.835s-1.94824-8.37-6.33176-8.37Zm-43.83529,27.9c-2.43529,0-4.87059,2.79-5.84471,4.65-.48706.465-.48706,0-.48706-.465.48706-3.72.48706-4.65.97412-7.44s1.94824-7.905,1.94824-7.905c-2.43529.93-7.30588.93-9.74118,0,0,0,1.46118,5.115,1.94824,7.905s.48706,3.72.97412,7.44c0,.465,0,.93-.48706.465-.97412-1.86-3.40941-4.65-5.84471-4.65-4.38353,0-6.33176,3.72-6.33176,8.37s1.94824,8.835,6.33176,8.835c2.43529,0,3.89647-2.325,5.35765-3.72.48706-.465.97412,0,.48706.465-1.46118,1.395-3.89647,5.115-3.89647,8.37,0,3.72,2.43529,8.37,6.33176,8.37s6.33176-4.65,6.33176-8.37c0-3.255-2.43529-6.975-3.89647-8.37-.48706-.465,0-.93.48706-.465,1.46118,1.395,2.92235,3.72,5.35765,3.72,4.38353,0,6.33176-4.185,6.33176-8.835s-1.94824-8.37-6.33176-8.37Zm-43.83529,27.9c-2.43529,0-4.87059,2.79-5.84471,4.65-.48706.465-.48706,0-.48706-.465.48706-3.72.48706-4.65.97412-7.44s1.94824-7.905,1.94824-7.905c-2.43529.93-7.30588.93-9.74118,0,0,0,1.46118,5.115,1.94824,7.905s.48706,3.72.97412,7.44c0,.465,0,.93-.48706.465-.97412-1.86-3.40941-4.65-5.84471-4.65-4.38353,0-6.33176,3.72-6.33176,8.37s1.94824,8.835,6.33176,8.835c2.43529,0,3.89647-2.325,5.35765-3.72.48706-.465.97412,0,.48706.465-1.46118,1.395-3.89647,5.115-3.89647,8.37,0,3.72,2.43529,8.37,6.33176,8.37s6.33176-4.65,6.33176-8.37c0-3.255-2.43529-6.975-3.89647-8.37-.48706-.465,0-.93.48706-.465,1.46118,1.395,2.92235,3.72,5.35765,3.72,4.38353,0,6.33176-4.185,6.33176-8.835s-1.94824-8.37-6.33176-8.37Zm87.67059,0c-2.43529,0-4.87059,2.79-5.84471,4.65-.48706.465-.48706,0-.48706-.465.48706-3.72.48706-4.65.97412-7.44.48706-2.79,1.94824-7.905,1.94824-7.905-2.43529.93-7.30588.93-9.74118,0,0,0,1.46118,5.115,1.94824,7.905s.48706,3.72.97412,7.44c0,.465,0,.93-.48706.465-.97412-1.86-3.40941-4.65-5.84471-4.65-4.38353,0-6.33176,3.72-6.33176,8.37s1.94824,8.835,6.33176,8.835c2.43529,0,3.89647-2.325,5.35765-3.72.48706-.465.97412,0,.48706.465-1.46118,1.395-3.89647,5.115-3.89647,8.37,0,3.72,2.43529,8.37,6.33176,8.37s6.33176-4.65,6.33176-8.37c0-3.255-2.43529-6.975-3.89647-8.37-.48706-.465,0-.93.48706-.465,1.46118,1.395,2.92235,3.72,5.35765,3.72,4.38353,0,6.33176-4.185,6.33176-8.835s-1.94824-8.37-6.33176-8.37Z"/>
</svg>