<?xml version="1.0" encoding="UTF-8"?>
<svg id="Layer_1" data-name="Layer 1" xmlns="http://www.w3.org/2000/svg" viewBox="0 0 180 252">
  <defs>
    <style>
      .cls-1, .cls-2, .cls-3 {
        stroke-width: 0px;
      }

      .cls-2 {
        fill: #231f20;
      }

      .cls-3 {
        fill: #fff;
      }
    </style>
  </defs>
  <path class="cls-2" d="m164.21048,0H15.78904C7.08285,0,0,6.62741,0,14.77379v222.45243c0,8.14615,7.08285,14.77379,15.78904,14.77379h148.42144c8.70643,0,15.78952-6.62764,15.78952-14.77379V14.77379c0-8.14637-7.08309-14.77379-15.78952-14.77379Zm13.92874,237.22621c0,7.18625-6.24865,13.03265-13.92874,13.03265H15.78904c-7.68009,0-13.92825-5.8464-13.92825-13.03265V14.77379C1.86078,7.58753,8.10894,1.74113,15.78904,1.74113h148.42144c7.68009,0,13.92874,5.8464,13.92874,13.03265v222.45243Z"/>
  <path class="cls-3" d="m178.13922,14.77379v222.45243c0,7.18625-6.24865,13.03265-13.92874,13.03265H15.78904c-7.68009,0-13.92825-5.8464-13.92825-13.03265V14.77379C1.86078,7.58753,8.10894,1.74113,15.78904,1.74113h148.42144c7.68009,0,13.92874,5.8464,13.92874,13.03265Z"/>
  <path class="cls-1" d="m9.70909,32.99999v-2.325h2.50909v2.325c0,1.28806,1.11904,2.325,2.50909,2.325s2.50909-1.03694,2.50909-2.325v-4.65c0-1.28806-1.11904-2.325-2.50909-2.325h-2.50909v-2.325h2.50909c1.39005,0,2.50909-1.03694,2.50909-2.325v-2.325c0-1.28806-1.11904-2.325-2.50909-2.325s-2.50909,1.03694-2.50909,2.325v2.325h-2.50909v-2.325c0-2.57612,2.23809-4.65,5.01818-4.65s5.01818,2.07388,5.01818,4.65v2.325c0,1.3967-.66384,2.63651-1.70932,3.4875,1.04547.85099,1.70932,2.0908,1.70932,3.4875v4.65c0,2.57612-2.23815,4.65-5.01818,4.65s-5.01818-2.07388-5.01818-4.65Zm155.56364,181.34991c-2.78009,0-5.01818,2.07399-5.01818,4.65v4.65c0,1.3967.66384,2.63663,1.70932,3.48761-1.04547.85087-1.70932,2.0908-1.70932,3.4875v2.325c0,2.576,2.23809,4.65,5.01818,4.65v-.00011c2.78003,0,5.01818-2.07388,5.01818-4.65v-2.325h-2.50909v2.325c0,1.28806-1.11911,2.325-2.50909,2.325s-2.50909-1.03694-2.50909-2.325v-2.325c0-1.28806,1.11904-2.325,2.50909-2.325h2.50909v-2.325h-2.50909c-1.39005,0-2.50909-1.03694-2.50909-2.325v-4.65c0-1.28806,1.11904-2.325,2.50909-2.325s2.50909,1.03694,2.50909,2.325v2.325h2.50909v-2.325c0-2.576-2.23815-4.65-5.01818-4.65ZM98.53091,34.85999c-2.50909,0-4.01455,2.325-5.52,3.72-.50182.465-1.00364,0-.50182-.465,1.50545-1.395,4.01455-5.115,4.01455-8.37,0-3.72-2.50909-8.37-6.52364-8.37s-6.52364,4.65-6.52364,8.37c0,3.255,2.50909,6.975,4.01455,8.37.50182.465,0,.93-.50182.465-1.50545-1.395-3.01091-3.72-5.52-3.72-4.51636,0-6.52364,4.185-6.52364,8.835s2.00727,8.37,6.52364,8.37c2.50909,0,5.01818-2.79,6.02182-4.65.50182-.465.50182,0,.50182.465-.50182,3.72-.50182,4.65-1.00364,7.44s-2.00727,7.905-2.00727,7.905c2.50909-.93,7.52727-.93,10.03636,0,0,0-1.50545-5.115-2.00727-7.905s-.50182-3.72-1.00364-7.44c0-.465,0-.93.50182-.465,1.00364,1.86,3.51273,4.65,6.02182,4.65,4.51636,0,6.52364-3.72,6.52364-8.37s-2.00727-8.835-6.52364-8.835Zm0,83.69996c-2.50909,0-4.01455,2.325-5.52,3.72-.50182.465-1.00364,0-.50182-.465,1.50545-1.395,4.01455-5.115,4.01455-8.37,0-3.72-2.50909-8.37-6.52364-8.37s-6.52364,4.65-6.52364,8.37c0,3.255,2.50909,6.975,4.01455,8.37.50182.465,0,.93-.50182.465-1.50545-1.395-3.01091-3.72-5.52-3.72-4.51636,0-6.52364,4.185-6.52364,8.835s2.00727,8.37,6.52364,8.37c2.50909,0,5.01818-2.79,6.02182-4.65.50182-.465.50182,0,.50182.465-.50182,3.72-.50182,4.65-1.00364,7.44s-2.00727,7.905-2.00727,7.905c2.50909-.93,7.52727-.93,10.03636,0,0,0-1.50545-5.115-2.00727-7.905s-.50182-3.72-1.00364-7.44c0-.465,0-.93.50182-.465,1.00364,1.86,3.51273,4.65,6.02182,4.65,4.51636,0,6.52364-3.72,6.52364-8.37s-2.00727-8.835-6.52364-8.835Zm0,81.37496c-2.50909,0-5.01818,2.79-6.02182,4.65-.50182.465-.50182,0-.50182-.465.50182-3.72.50182-4.65,1.00364-7.44s2.00727-7.905,2.00727-7.905c-2.50909.93-7.52727.93-10.03636,0,0,0,1.50545,5.115,2.00727,7.905s.50182,3.72,1.00364,7.44c0,.465,0,.93-.50182.465-1.00364-1.86-3.51273-4.65-6.02182-4.65-4.51636,0-6.52364,3.72-6.52364,8.37s2.00727,8.835,6.52364,8.835c2.50909,0,4.01455-2.325,5.52-3.72.50182-.465,1.00364,0,.50182.465-1.50545,1.395-4.01455,5.115-4.01455,8.37,0,3.72,2.50909,8.37,6.52364,8.37s6.52364-4.65,6.52364-8.37c0-3.255-2.50909-6.975-4.01455-8.37-.50182-.465,0-.93.50182-.465,1.50545,1.395,3.01091,3.72,5.52,3.72,4.51636,0,6.52364-4.185,6.52364-8.835s-2.00727-8.37-6.52364-8.37ZM18.99273,49.04248c-1.25455,0-2.00727,1.1625-2.76,1.86-.25091.2325-.50182,0-.25091-.2325.75273-.6975,2.00727-2.5575,2.00727-4.185,0-1.86-1.25455-4.185-3.26182-4.185s-3.26182,2.325-3.26182,4.185c0,1.6275,1.25455,3.4875,2.00727,4.185.25091.2325,0,.465-.25091.2325-.75273-.6975-1.50545-1.86-2.76-1.86-2.25818,0-3.26182,2.0925-3.26182,4.4175s1.00364,4.185,3.26182,4.185c1.25455,0,2.50909-1.395,3.01091-2.325.25091-.2325.25091,0,.25091.2325-.25091,1.86-.25091,2.325-.50182,3.72s-1.00364,3.9525-1.00364,3.9525c1.25455-.465,3.76364-.465,5.01818,0,0,0-.75273-2.5575-1.00364-3.9525s-.25091-1.86-.50182-3.72c0-.2325,0-.465.25091-.2325.50182.93,1.75636,2.325,3.01091,2.325,2.25818,0,3.26182-1.86,3.26182-4.185s-1.00364-4.4175-3.26182-4.4175Zm150.54545,145.31243c-1.25455,0-2.50909,1.395-3.01091,2.325-.25091.2325-.25091,0-.25091-.2325.25091-1.86.25091-2.325.50182-3.72s1.00364-3.9525,1.00364-3.9525c-1.25455.465-3.76364.465-5.01818,0,0,0,.75273,2.5575,1.00364,3.9525s.25091,1.86.50182,3.72c0,.2325,0,.465-.25091.2325-.50182-.93-1.75636-2.325-3.01091-2.325-2.25818,0-3.26182,1.86-3.26182,4.185s1.00364,4.4175,3.26182,4.4175c1.25455,0,2.00727-1.1625,2.76-1.86.25091-.2325.50182,0,.25091.2325-.75273.6975-2.00727,2.5575-2.00727,4.185,0,1.86,1.25455,4.185,3.26182,4.185s3.26182-2.325,3.26182-4.185c0-1.6275-1.25455-3.4875-2.00727-4.185-.25091-.2325,0-.465.25091-.2325.75273.6975,1.50545,1.86,2.76,1.86,2.25818,0,3.26182-2.0925,3.26182-4.4175s-1.00364-4.185-3.26182-4.185Z"/>
</svg>