<?xml version="1.0" encoding="UTF-8"?>
<svg id="Layer_1" data-name="Layer 1" xmlns="http://www.w3.org/2000/svg" viewBox="0 0 180 252">
  <defs>
    <style>
      .cls-1 {
        fill: #231f20;
      }

      .cls-1, .cls-2, .cls-3 {
        stroke-width: 0px;
      }

      .cls-2 {
        fill: #fff;
      }

      .cls-3 {
        fill: #ec2024;
      }
    </style>
  </defs>
  <path class="cls-1" d="m164.21048,0H15.78904C7.08285,0,0,6.62741,0,14.77379v222.45243c0,8.14615,7.08285,14.77379,15.78904,14.77379h148.42144c8.70643,0,15.78952-6.62764,15.78952-14.77379V14.77379c0-8.14637-7.08309-14.77379-15.78952-14.77379Zm13.92874,237.22621c0,7.18625-6.24865,13.03265-13.92874,13.03265H15.78904c-7.68009,0-13.92825-5.8464-13.92825-13.03265V14.77379C1.86078,7.58753,8.10894,1.74113,15.78904,1.74113h148.42144c7.68009,0,13.92874,5.8464,13.92874,13.03265v222.45243Z"/>
  <path class="cls-2" d="m178.13922,14.77379v222.45243c0,7.18625-6.24865,13.03265-13.92874,13.03265H15.78904c-7.68009,0-13.92825-5.8464-13.92825-13.03265V14.77379C1.86078,7.58753,8.10894,1.74113,15.78904,1.74113h148.42144c7.68009,0,13.92874,5.8464,13.92874,13.03265Z"/>
  <path class="cls-3" d="m9.63529,17.655l-2.43529,3.255v-3.255l2.43529-3.255h2.43529v23.25h-2.43529v-19.995Zm14.61176,1.395v13.95c0,2.57612-2.17238,4.65-4.87059,4.65s-4.87059-2.07388-4.87059-4.65v-13.95c0-2.576,2.17226-4.65,4.87059-4.65s4.87059,2.074,4.87059,4.65Zm-2.43529,0c0-1.28806-1.08613-2.325-2.43529-2.325s-2.43529,1.03694-2.43529,2.325v13.95c0,1.28806,1.08613,2.325,2.43529,2.325s2.43529-1.03694,2.43529-2.325v-13.95Zm148.55294,215.295v-19.995h-2.43529v23.25h2.43529l2.43529-3.255v-3.255l-2.43529,3.255Zm-4.87059-15.345v13.95c0,2.57612-2.17226,4.65-4.87059,4.65s-4.87059-2.07388-4.87059-4.65v-13.95c0-2.576,2.17226-4.65,4.87059-4.65s4.87059,2.074,4.87059,4.65Zm-2.43529,0c0-1.28806-1.08613-2.325-2.43529-2.325s-2.43529,1.03694-2.43529,2.325v13.95c0,1.28806,1.08613,2.325,2.43529,2.325s2.43529-1.03694,2.43529-2.325v-13.95ZM46.16471,21.375s-2.92235,6.975-6.33176,11.625-8.28,9.3-8.28,9.3c0,0,4.87059,4.65,8.28,9.3s6.33176,11.625,6.33176,11.625c0,0,2.92235-6.975,6.33176-11.625,3.40941-4.65,8.28-9.3,8.28-9.3,0,0-4.87059-4.65-8.28-9.3s-6.33176-11.625-6.33176-11.625Zm87.67059,0s-2.92235,6.975-6.33176,11.625c-3.40941,4.65-8.28,9.3-8.28,9.3,0,0,4.87059,4.65,8.28,9.3,3.40941,4.65,6.33176,11.625,6.33176,11.625,0,0,2.92235-6.975,6.33176-11.625,3.40941-4.65,8.28-9.3,8.28-9.3,0,0-4.87059-4.65-8.28-9.3-3.40941-4.65-6.33176-11.625-6.33176-11.625Zm-43.83529,27.9s-2.92235,6.975-6.33176,11.625-8.28,9.3-8.28,9.3c0,0,4.87059,4.65,8.28,9.3s6.33176,11.625,6.33176,11.625c0,0,2.92235-6.975,6.33176-11.625s8.28-9.3,8.28-9.3c0,0-4.87059-4.65-8.28-9.3-3.40941-4.65-6.33176-11.625-6.33176-11.625Zm-43.83529,27.9s-2.92235,6.975-6.33176,11.625c-3.40941,4.65-8.28,9.3-8.28,9.3,0,0,4.87059,4.65,8.28,9.3,3.40941,4.65,6.33176,11.625,6.33176,11.625,0,0,2.92235-6.975,6.33176-11.625s8.28-9.3,8.28-9.3c0,0-4.87059-4.65-8.28-9.3s-6.33176-11.625-6.33176-11.625Zm87.67059,0s-2.92235,6.975-6.33176,11.625-8.28,9.3-8.28,9.3c0,0,4.87059,4.65,8.28,9.3,3.40941,4.65,6.33176,11.625,6.33176,11.625,0,0,2.92235-6.975,6.33176-11.625,3.40941-4.65,8.28-9.3,8.28-9.3,0,0-4.87059-4.65-8.28-9.3-3.40941-4.65-6.33176-11.625-6.33176-11.625Zm-87.67059,55.8s-2.92235,6.975-6.33176,11.625c-3.40941,4.65-8.28,9.3-8.28,9.3,0,0,4.87059,4.65,8.28,9.3,3.40941,4.65,6.33176,11.625,6.33176,11.625,0,0,2.92235-6.975,6.33176-11.625s8.28-9.3,8.28-9.3c0,0-4.87059-4.65-8.28-9.3s-6.33176-11.625-6.33176-11.625Zm87.67059,0s-2.92235,6.975-6.33176,11.625c-3.40941,4.65-8.28,9.3-8.28,9.3,0,0,4.87059,4.65,8.28,9.3s6.33176,11.625,6.33176,11.625c0,0,2.92235-6.975,6.33176-11.625,3.40941-4.65,8.28-9.3,8.28-9.3,0,0-4.87059-4.65-8.28-9.3-3.40941-4.65-6.33176-11.625-6.33176-11.625Zm-43.83529,27.9s-2.92235,6.975-6.33176,11.625-8.28,9.3-8.28,9.3c0,0,4.87059,4.65,8.28,9.3s6.33176,11.625,6.33176,11.625c0,0,2.92235-6.975,6.33176-11.625,3.40941-4.65,8.28-9.3,8.28-9.3,0,0-4.87059-4.65-8.28-9.3s-6.33176-11.625-6.33176-11.625Zm-43.83529,27.9s-2.92235,6.975-6.33176,11.625-8.28,9.3-8.28,9.3c0,0,4.87059,4.65,8.28,9.3s6.33176,11.625,6.33176,11.625c0,0,2.92235-6.975,6.33176-11.625s8.28-9.3,8.28-9.3c0,0-4.87059-4.65-8.28-9.3-3.40941-4.65-6.33176-11.625-6.33176-11.625Zm87.67059,0s-2.92235,6.975-6.33176,11.625c-3.40941,4.65-8.28,9.3-8.28,9.3,0,0,4.87059,4.65,8.28,9.3,3.40941,4.65,6.33176,11.625,6.33176,11.625,0,0,2.92235-6.975,6.33176-11.625,3.40941-4.65,8.28-9.3,8.28-9.3,0,0-4.87059-4.65-8.28-9.3-3.40941-4.65-6.33176-11.625-6.33176-11.625ZM16.94118,42.3s-1.46118,3.4875-3.16588,5.8125-4.14,4.65-4.14,4.65c0,0,2.43529,2.325,4.14,4.65s3.16588,5.8125,3.16588,5.8125c0,0,1.46118-3.4875,3.16588-5.8125s4.14-4.65,4.14-4.65c0,0-2.43529-2.325-4.14-4.65s-3.16588-5.8125-3.16588-5.8125Zm149.28353,152.2875c-1.70471-2.325-3.16588-5.8125-3.16588-5.8125,0,0-1.46118,3.4875-3.16588,5.8125s-4.14,4.65-4.14,4.65c0,0,2.43529,2.325,4.14,4.65s3.16588,5.8125,3.16588,5.8125c0,0,1.46118-3.4875,3.16588-5.8125s4.14-4.65,4.14-4.65c0,0-2.43529-2.325-4.14-4.65Z"/>
</svg>