<?xml version="1.0" encoding="UTF-8"?>
<svg id="Layer_1" data-name="Layer 1" xmlns="http://www.w3.org/2000/svg" viewBox="0 0 180 252">
  <defs>
    <style>
      .cls-1 {
        fill: #231f20;
      }

      .cls-1, .cls-2, .cls-3 {
        stroke-width: 0px;
      }

      .cls-2 {
        fill: #fff;
      }

      .cls-3 {
        fill: #ec2024;
      }
    </style>
  </defs>
  <path class="cls-1" d="m164.21048,0H15.78904C7.08285,0,0,6.62741,0,14.77379v222.45243c0,8.14615,7.08285,14.77379,15.78904,14.77379h148.42144c8.70643,0,15.78952-6.62764,15.78952-14.77379V14.77379c0-8.14637-7.08309-14.77379-15.78952-14.77379Zm13.92874,237.22621c0,7.18625-6.24865,13.03265-13.92874,13.03265H15.78904c-7.68009,0-13.92825-5.8464-13.92825-13.03265V14.77379C1.86078,7.58753,8.10894,1.74113,15.78904,1.74113h148.42144c7.68009,0,13.92874,5.8464,13.92874,13.03265v222.45243Z"/>
  <path class="cls-2" d="m178.13922,14.77379v222.45243c0,7.18625-6.24865,13.03265-13.92874,13.03265H15.78904c-7.68009,0-13.92825-5.8464-13.92825-13.03265V14.77379C1.86078,7.58753,8.10894,1.74113,15.78904,1.74113h148.42144c7.68009,0,13.92874,5.8464,13.92874,13.03265Z"/>
  <path class="cls-3" d="m14.72727,37.65h-5.01818v-2.325c2.36946-4.1716,4.78571-7.90307,7.02545-12.13655.31361-.38803.50182-1.28919.50182-1.81345v-2.325c0-1.28806-1.11904-2.325-2.50909-2.325s-2.50909,1.03694-2.50909,2.325v2.325h-2.50909v-2.325c0-2.57612,2.23809-4.65,5.01818-4.65s5.01818,2.07388,5.01818,4.65v2.325c0,1.04875-.3763,2.19978-1.00364,2.97595-2.14862,3.73317-4.02021,7.29333-6.27273,10.97405h4.76727v-2.325h2.50909v4.65h-5.01818Zm145.52727,176.7v4.65h2.50909v-2.325h4.76727c-2.25255,3.68072-4.12413,7.24099-6.27273,10.97405-.62733.77629-1.00364,1.92732-1.00364,2.97595v2.325c0,2.57612,2.23809,4.65,5.01818,4.65s5.01818-2.07388,5.01818-4.65v-2.325h-2.50909v2.325c0,1.28806-1.11911,2.325-2.50909,2.325s-2.50909-1.03694-2.50909-2.325v-2.325c0-.52426.18824-1.42542.50182-1.81345,2.23974-4.23336,4.65597-7.96483,7.02545-12.13655v-2.325h-10.03636ZM90,21.375s-3.01091,6.975-6.52364,11.625-8.53091,9.3-8.53091,9.3c0,0,5.01818,4.65,8.53091,9.3s6.52364,11.625,6.52364,11.625c0,0,3.01091-6.975,6.52364-11.625s8.53091-9.3,8.53091-9.3c0,0-5.01818-4.65-8.53091-9.3s-6.52364-11.625-6.52364-11.625Zm0,167.4s-3.01091,6.975-6.52364,11.625-8.53091,9.3-8.53091,9.3c0,0,5.01818,4.65,8.53091,9.3s6.52364,11.625,6.52364,11.625c0,0,3.01091-6.975,6.52364-11.625s8.53091-9.3,8.53091-9.3c0,0-5.01818-4.65-8.53091-9.3s-6.52364-11.625-6.52364-11.625ZM14.72727,42.3s-1.50545,3.4875-3.26182,5.8125-4.26545,4.65-4.26545,4.65c0,0,2.50909,2.325,4.26545,4.65s3.26182,5.8125,3.26182,5.8125c0,0,1.50545-3.4875,3.26182-5.8125s4.26545-4.65,4.26545-4.65c0,0-2.50909-2.325-4.26545-4.65s-3.26182-5.8125-3.26182-5.8125Zm150.54545,167.4s1.50545-3.4875,3.26182-5.8125,4.26545-4.65,4.26545-4.65c0,0-2.50909-2.325-4.26545-4.65s-3.26182-5.8125-3.26182-5.8125c0,0-1.50545,3.4875-3.26182,5.8125s-4.26545,4.65-4.26545,4.65c0,0,2.50909,2.325,4.26545,4.65,1.75636,2.325,3.26182,5.8125,3.26182,5.8125Z"/>
</svg>