<?xml version="1.0" encoding="UTF-8"?>
<svg id="Layer_1" data-name="Layer 1" xmlns="http://www.w3.org/2000/svg" viewBox="0 0 180 252">
  <defs>
    <style>
      .cls-1 {
        fill: #231f20;
      }

      .cls-1, .cls-2, .cls-3 {
        stroke-width: 0px;
      }

      .cls-2 {
        fill: #fff;
      }

      .cls-3 {
        fill: #ec2024;
      }
    </style>
  </defs>
  <path class="cls-1" d="m164.21048,0H15.78904C7.08285,0,0,6.62741,0,14.77379v222.45243c0,8.14615,7.08285,14.77379,15.78904,14.77379h148.42144c8.70643,0,15.78952-6.62764,15.78952-14.77379V14.77379c0-8.14637-7.08309-14.77379-15.78952-14.77379Zm13.92874,237.22621c0,7.18625-6.24865,13.03265-13.92874,13.03265H15.78904c-7.68009,0-13.92825-5.8464-13.92825-13.03265V14.77379C1.86078,7.58753,8.10894,1.74113,15.78904,1.74113h148.42144c7.68009,0,13.92874,5.8464,13.92874,13.03265v222.45243Z"/>
  <path class="cls-2" d="m178.13922,14.77379v222.45243c0,7.18625-6.24865,13.03265-13.92874,13.03265H15.78904c-7.68009,0-13.92825-5.8464-13.92825-13.03265V14.77379C1.86078,7.58753,8.10894,1.74113,15.78904,1.74113h148.42144c7.68009,0,13.92874,5.8464,13.92874,13.03265Z"/>
  <path class="cls-3" d="m17.98909,48.1125c1.75636,2.325,4.26545,4.65,4.26545,4.65,0,0-2.50909,2.325-4.26545,4.65s-3.26182,5.8125-3.26182,5.8125c0,0-1.50545-3.4875-3.26182-5.8125s-4.26545-4.65-4.26545-4.65c0,0,2.50909-2.325,4.26545-4.65s3.26182-5.8125,3.26182-5.8125c0,0,1.50545,3.4875,3.26182,5.8125Zm26.84727,140.6625s-3.01091,6.975-6.52364,11.625c-3.51273,4.65-8.53091,9.3-8.53091,9.3,0,0,5.01818,4.65,8.53091,9.3s6.52364,11.625,6.52364,11.625c0,0,3.01091-6.975,6.52364-11.625s8.53091-9.3,8.53091-9.3c0,0-5.01818-4.65-8.53091-9.3-3.51273-4.65-6.52364-11.625-6.52364-11.625ZM15.73091,37.65h2.50909v-4.65h1.50545v-2.325h-1.50545v-6.975h-2.50909v6.975h-3.41233l5.01812-16.275h-2.60943l-5.01818,16.275v2.325h6.02182v4.65Zm29.10545-16.275s-3.01091,6.975-6.52364,11.625-8.53091,9.3-8.53091,9.3c0,0,5.01818,4.65,8.53091,9.3,3.51273,4.65,6.52364,11.625,6.52364,11.625,0,0,3.01091-6.975,6.52364-11.625,3.51273-4.65,8.53091-9.3,8.53091-9.3,0,0-5.01818-4.65-8.53091-9.3s-6.52364-11.625-6.52364-11.625Zm120.43636,188.325s1.50545-3.4875,3.26182-5.8125,4.26545-4.65,4.26545-4.65c0,0-2.50909-2.325-4.26545-4.65s-3.26182-5.8125-3.26182-5.8125c0,0-1.50545,3.4875-3.26182,5.8125s-4.26545,4.65-4.26545,4.65c0,0,2.50909,2.325,4.26545,4.65,1.75636,2.325,3.26182,5.8125,3.26182,5.8125Zm-1.00364,4.65h-2.50909v4.65h-1.50545v2.325h1.50545v6.975h2.50909v-6.975h3.41233l-5.01818,16.275h2.60949l5.01818-16.275v-2.325h-6.02182v-4.65Zm-29.10545-192.975s-3.01091,6.975-6.52364,11.625-8.53091,9.3-8.53091,9.3c0,0,5.01818,4.65,8.53091,9.3s6.52364,11.625,6.52364,11.625c0,0,3.01091-6.975,6.52364-11.625,3.51273-4.65,8.53091-9.3,8.53091-9.3,0,0-5.01818-4.65-8.53091-9.3-3.51273-4.65-6.52364-11.625-6.52364-11.625Zm0,167.4s-3.01091,6.975-6.52364,11.625-8.53091,9.3-8.53091,9.3c0,0,5.01818,4.65,8.53091,9.3s6.52364,11.625,6.52364,11.625c0,0,3.01091-6.975,6.52364-11.625,3.51273-4.65,8.53091-9.3,8.53091-9.3,0,0-5.01818-4.65-8.53091-9.3-3.51273-4.65-6.52364-11.625-6.52364-11.625Z"/>
</svg>