<?xml version="1.0" encoding="UTF-8"?>
<svg id="Layer_1" data-name="Layer 1" xmlns="http://www.w3.org/2000/svg" viewBox="0 0 180 252">
  <defs>
    <style>
      .cls-1 {
        fill: #231f20;
      }

      .cls-1, .cls-2, .cls-3 {
        stroke-width: 0px;
      }

      .cls-2 {
        fill: #fff;
      }

      .cls-3 {
        fill: #ec2024;
      }
    </style>
  </defs>
  <path class="cls-1" d="m164.21048,0H15.78904C7.08285,0,0,6.62741,0,14.77379v222.45243c0,8.14615,7.08285,14.77379,15.78904,14.77379h148.42144c8.70643,0,15.78952-6.62764,15.78952-14.77379V14.77379c0-8.14637-7.08309-14.77379-15.78952-14.77379Zm13.92874,237.22621c0,7.18625-6.24865,13.03265-13.92874,13.03265H15.78904c-7.68009,0-13.92825-5.8464-13.92825-13.03265V14.77379C1.86078,7.58753,8.10894,1.74113,15.78904,1.74113h148.42144c7.68009,0,13.92874,5.8464,13.92874,13.03265v222.45243Z"/>
  <path class="cls-2" d="m178.13922,14.77379v222.45243c0,7.18625-6.24865,13.03265-13.92874,13.03265H15.78904c-7.68009,0-13.92825-5.8464-13.92825-13.03265V14.77379C1.86078,7.58753,8.10894,1.74113,15.78904,1.74113h148.42144c7.68009,0,13.92874,5.8464,13.92874,13.03265Z"/>
  <path class="cls-3" d="m14.72727,37.65c2.77997,0,5.01818-2.07388,5.01818-4.65v-13.95c0-2.57612-2.23821-4.65-5.01818-4.65s-5.01818,2.07388-5.01818,4.65v4.65c0,2.57612,2.23809,4.65,5.01818,4.65.91457,0,1.77205-.23182,2.50909-.62484v5.27484c0,1.28806-1.11904,2.325-2.50909,2.325s-2.50909-1.03694-2.50909-2.325v-.465h-2.50909v.465c0,2.57612,2.23809,4.65,5.01818,4.65Zm0-11.625c-1.39005,0-2.50909-1.03694-2.50909-2.325v-4.65c0-1.28806,1.11904-2.325,2.50909-2.325s2.50909,1.03694,2.50909,2.325v4.65c0,1.28806-1.11904,2.325-2.50909,2.325Zm150.54545,188.325c-2.78009,0-5.01818,2.07388-5.01818,4.65v13.95c0,2.57612,2.23809,4.65,5.01818,4.65s5.01818-2.07388,5.01818-4.65v-4.65c0-2.57612-2.23821-4.65-5.01818-4.65-.91469,0-1.77229.23182-2.50909.62484v-5.27484c0-1.28806,1.11904-2.325,2.50909-2.325,1.38992,0,2.50909,1.03694,2.50909,2.325v.465h2.50909v-.465c0-2.57612-2.23821-4.65-5.01818-4.65Zm0,11.625c1.38992,0,2.50909,1.03694,2.50909,2.325v4.65c0,1.28806-1.11917,2.325-2.50909,2.325-1.39005,0-2.50909-1.03694-2.50909-2.325v-4.65c0-1.28806,1.11904-2.325,2.50909-2.325ZM17.98909,48.1125c1.75636,2.325,4.26545,4.65,4.26545,4.65,0,0-2.50909,2.325-4.26545,4.65s-3.26182,5.8125-3.26182,5.8125c0,0-1.50545-3.4875-3.26182-5.8125s-4.26545-4.65-4.26545-4.65c0,0,2.50909-2.325,4.26545-4.65s3.26182-5.8125,3.26182-5.8125c0,0,1.50545,3.4875,3.26182,5.8125Zm144.02182,155.775c-1.75636-2.325-4.26545-4.65-4.26545-4.65,0,0,2.50909-2.325,4.26545-4.65s3.26182-5.8125,3.26182-5.8125c0,0,1.50545,3.4875,3.26182,5.8125s4.26545,4.65,4.26545,4.65c0,0-2.50909,2.325-4.26545,4.65s-3.26182,5.8125-3.26182,5.8125c0,0-1.50545-3.4875-3.26182-5.8125ZM51.36,33c3.51273,4.65,8.53091,9.3,8.53091,9.3,0,0-5.01818,4.65-8.53091,9.3-3.51273,4.65-6.52364,11.625-6.52364,11.625,0,0-3.01091-6.975-6.52364-11.625s-8.53091-9.3-8.53091-9.3c0,0,5.01818-4.65,8.53091-9.3s6.52364-11.625,6.52364-11.625c0,0,3.01091,6.975,6.52364,11.625Zm0,55.8c3.51273,4.65,8.53091,9.3,8.53091,9.3,0,0-5.01818,4.65-8.53091,9.3s-6.52364,11.625-6.52364,11.625c0,0-3.01091-6.975-6.52364-11.625s-8.53091-9.3-8.53091-9.3c0,0,5.01818-4.65,8.53091-9.3,3.51273-4.65,6.52364-11.625,6.52364-11.625,0,0,3.01091,6.975,6.52364,11.625Zm0,55.8c3.51273,4.65,8.53091,9.3,8.53091,9.3,0,0-5.01818,4.65-8.53091,9.3s-6.52364,11.625-6.52364,11.625c0,0-3.01091-6.975-6.52364-11.625-3.51273-4.65-8.53091-9.3-8.53091-9.3,0,0,5.01818-4.65,8.53091-9.3s6.52364-11.625,6.52364-11.625c0,0,3.01091,6.975,6.52364,11.625Zm0,55.8c3.51273,4.65,8.53091,9.3,8.53091,9.3,0,0-5.01818,4.65-8.53091,9.3s-6.52364,11.625-6.52364,11.625c0,0-3.01091-6.975-6.52364-11.625s-8.53091-9.3-8.53091-9.3c0,0,5.01818-4.65,8.53091-9.3s6.52364-11.625,6.52364-11.625c0,0,3.01091,6.975,6.52364,11.625Zm45.16364-83.7c3.51273,4.65,8.53091,9.3,8.53091,9.3,0,0-5.01818,4.65-8.53091,9.3-3.51273,4.65-6.52364,11.625-6.52364,11.625,0,0-3.01091-6.975-6.52364-11.625s-8.53091-9.3-8.53091-9.3c0,0,5.01818-4.65,8.53091-9.3s6.52364-11.625,6.52364-11.625c0,0,3.01091,6.975,6.52364,11.625Zm45.16364-83.7c3.51273,4.65,8.53091,9.3,8.53091,9.3,0,0-5.01818,4.65-8.53091,9.3-3.51273,4.65-6.52364,11.625-6.52364,11.625,0,0-3.01091-6.975-6.52364-11.625s-8.53091-9.3-8.53091-9.3c0,0,5.01818-4.65,8.53091-9.3s6.52364-11.625,6.52364-11.625c0,0,3.01091,6.975,6.52364,11.625Zm0,55.8c3.51273,4.65,8.53091,9.3,8.53091,9.3,0,0-5.01818,4.65-8.53091,9.3-3.51273,4.65-6.52364,11.625-6.52364,11.625,0,0-3.01091-6.975-6.52364-11.625s-8.53091-9.3-8.53091-9.3c0,0,5.01818-4.65,8.53091-9.3,3.51273-4.65,6.52364-11.625,6.52364-11.625,0,0,3.01091,6.975,6.52364,11.625Zm0,55.8c3.51273,4.65,8.53091,9.3,8.53091,9.3,0,0-5.01818,4.65-8.53091,9.3-3.51273,4.65-6.52364,11.625-6.52364,11.625,0,0-3.01091-6.975-6.52364-11.625-3.51273-4.65-8.53091-9.3-8.53091-9.3,0,0,5.01818-4.65,8.53091-9.3s6.52364-11.625,6.52364-11.625c0,0,3.01091,6.975,6.52364,11.625Zm0,55.8c3.51273,4.65,8.53091,9.3,8.53091,9.3,0,0-5.01818,4.65-8.53091,9.3-3.51273,4.65-6.52364,11.625-6.52364,11.625,0,0-3.01091-6.975-6.52364-11.625s-8.53091-9.3-8.53091-9.3c0,0,5.01818-4.65,8.53091-9.3s6.52364-11.625,6.52364-11.625c0,0,3.01091,6.975,6.52364,11.625Z"/>
</svg>